{
.appVersion = "3201";
copyright = "Copyright (c) 2011 by vernon adams. All rights reserved.";
customParameters = (
{
name = trademark;
value = "Shanti is a trademark of vernon adams.";
}
);
date = "2023-07-13 14:03:05 +0000";
designer = "vernon adams";
familyName = Shanti;
fontMaster = (
{
ascender = 2030;
capHeight = 1412;
customParameters = (
{
name = typoAscender;
value = 2030;
},
{
name = typoDescender;
value = -639;
},
{
name = typoLineGap;
value = 0;
},
{
name = winAscent;
value = 2030;
},
{
name = winDescent;
value = 639;
},
{
name = underlineThickness;
value = 102;
},
{
name = underlinePosition;
value = -154;
},
{
name = strikeoutPosition;
value = 512;
},
{
name = strikeoutSize;
value = 102;
},
{
name = subscriptXOffset;
value = 0;
},
{
name = subscriptXSize;
value = -28504;
},
{
name = subscriptYOffset;
value = 2673;
},
{
name = subscriptYSize;
value = -31306;
},
{
name = superscriptXOffset;
value = 0;
},
{
name = superscriptXSize;
value = -28504;
},
{
name = superscriptYOffset;
value = 17254;
},
{
name = superscriptYSize;
value = -31306;
},
{
name = hheaAscender;
value = 2030;
},
{
name = hheaDescender;
value = -639;
},
{
name = hheaLineGap;
value = 0;
},
{
name = TTFStems;
value = (
{
horizontal = 1;
name = "Y: 170";
width = 170;
},
{
horizontal = 1;
name = "Y: 141";
width = 141;
},
{
horizontal = 0;
name = "X: 189";
width = 189;
}
);
}
);
descender = -639;
guideLines = (
{
position = "{0, 300}";
},
{
position = "{0, 1000}";
}
);
horizontalStems = (
141,
170
);
id = "01C703B5-1257-45FB-9F79-4B1C4C3BA1BB";
verticalStems = (
189
);
xHeight = 984;
}
);
glyphs = (
{
glyphname = A;
layers = (
{
layerId = "01C703B5-1257-45FB-9F79-4B1C4C3BA1BB";
paths = (
{
closed = 1;
nodes = (
"19 64 LINE",
"553 1412 LINE",
"746 1412 LINE",
"1273 59 LINE",
"1273 0 LINE",
"1084 0 LINE",
"932 396 LINE",
"349 396 LINE",
"195 0 LINE",
"19 0 LINE"
);
},
{
closed = 1;
nodes = (
"547 928 LINE",
"414 568 LINE",
"869 568 LINE",
"739 928 LINE",
"644 1198 LINE"
);
}
);
width = 1295;
}
);
unicode = 0041;
},
{
glyphname = AE;
layers = (
{
layerId = "01C703B5-1257-45FB-9F79-4B1C4C3BA1BB";
paths = (
{
closed = 1;
nodes = (
"960 0 LINE",
"924 410 LINE",
"389 410 LINE",
"176 0 LINE",
"-33 0 LINE",
"704 1412 LINE",
"1683 1412 LINE",
"1683 1237 LINE",
"1042 1237 LINE",
"1081 820 LINE",
"1651 820 LINE",
"1651 645 LINE",
"1098 645 LINE",
"1142 177 LINE",
"1694 177 LINE",
"1694 0 LINE"
);
},
{
closed = 1;
nodes = (
"472 581 LINE",
"907 581 LINE",
"848 1245 LINE",
"807 1245 LINE"
);
}
);
width = 1814;
}
);
unicode = 00C6;
},
{
glyphname = B;
layers = (
{
layerId = "01C703B5-1257-45FB-9F79-4B1C4C3BA1BB";
paths = (
{
closed = 1;
nodes = (
"60 1412 LINE",
"615 1412 LINE SMOOTH",
"932 1412 OFFCURVE",
"1122 1319 OFFCURVE",
"1122 1054 CURVE SMOOTH",
"1122 885 OFFCURVE",
"1006 785 OFFCURVE",
"892 740 CURVE",
"1024 700 OFFCURVE",
"1163 615 OFFCURVE",
"1163 399 CURVE SMOOTH",
"1163 91 OFFCURVE",
"913 0 OFFCURVE",
"648 0 CURVE SMOOTH",
"190 0 LINE",
"190 1242 LINE",
"60 1242 LINE"
);
},
{
closed = 1;
nodes = (
"387 821 LINE",
"637 821 LINE SMOOTH",
"769 821 OFFCURVE",
"919 853 OFFCURVE",
"919 1037 CURVE SMOOTH",
"919 1220 OFFCURVE",
"780 1242 OFFCURVE",
"631 1242 CURVE SMOOTH",
"387 1242 LINE"
);
},
{
closed = 1;
nodes = (
"386 647 LINE",
"386 170 LINE",
"678 170 LINE",
"863 175 OFFCURVE",
"958 250 OFFCURVE",
"958 410 CURVE SMOOTH",
"958 546 OFFCURVE",
"874 647 OFFCURVE",
"677 647 CURVE SMOOTH"
);
}
);
width = 1269;
}
);
unicode = 0042;
},
{
glyphname = C;
layers = (
{
layerId = "01C703B5-1257-45FB-9F79-4B1C4C3BA1BB";
paths = (
{
closed = 1;
nodes = (
"1162 93 LINE",
"1001 12 OFFCURVE",
"859 -26 OFFCURVE",
"730 -26 CURVE SMOOTH",
"283 -26 OFFCURVE",
"105 325 OFFCURVE",
"105 735 CURVE SMOOTH",
"105 1226 OFFCURVE",
"432 1442 OFFCURVE",
"730 1442 CURVE SMOOTH",
"949 1442 OFFCURVE",
"1151 1322 OFFCURVE",
"1196 1095 CURVE",
"1009 1051 LINE",
"988 1190 OFFCURVE",
"868 1268 OFFCURVE",
"732 1268 CURVE SMOOTH",
"537 1268 OFFCURVE",
"313 1114 OFFCURVE",
"313 737 CURVE SMOOTH",
"313 438 OFFCURVE",
"406 149 OFFCURVE",
"749 149 CURVE SMOOTH",
"849 149 OFFCURVE",
"963 182 OFFCURVE",
"1096 247 CURVE"
);
}
);
width = 1236;
}
);
unicode = 0043;
},
{
glyphname = D;
layers = (
{
layerId = "01C703B5-1257-45FB-9F79-4B1C4C3BA1BB";
paths = (
{
closed = 1;
nodes = (
"1289 171 OFFCURVE",
"970 0 OFFCURVE",
"568 0 CURVE SMOOTH",
"190 0 LINE",
"190 1242 LINE",
"50 1242 LINE",
"50 1412 LINE",
"592 1412 LINE SMOOTH",
"1000 1412 OFFCURVE",
"1289 1206 OFFCURVE",
"1289 706 CURVE SMOOTH"
);
},
{
closed = 1;
nodes = (
"1080 1037 OFFCURVE",
"946 1242 OFFCURVE",
"595 1242 CURVE SMOOTH",
"385 1242 LINE",
"385 170 LINE",
"554 170 LINE",
"922 175 OFFCURVE",
"1080 334 OFFCURVE",
"1080 699 CURVE SMOOTH"
);
}
);
width = 1400;
}
);
unicode = 0044;
},
{
glyphname = Eth;
layers = (
{
layerId = "01C703B5-1257-45FB-9F79-4B1C4C3BA1BB";
paths = (
{
closed = 1;
nodes = (
"73 640 LINE",
"73 808 LINE",
"192 808 LINE",
"192 1412 LINE",
"674 1412 LINE SMOOTH",
"1090 1412 OFFCURVE",
"1294 1072 OFFCURVE",
"1294 725 CURVE SMOOTH",
"1294 296 OFFCURVE",
"1071 0 OFFCURVE",
"651 0 CURVE SMOOTH",
"192 0 LINE",
"192 640 LINE"
);
},
{
closed = 1;
nodes = (
"389 1240 LINE",
"389 808 LINE",
"565 808 LINE",
"565 640 LINE",
"389 640 LINE",
"389 171 LINE",
"637 171 LINE SMOOTH",
"936 171 OFFCURVE",
"1084 403 OFFCURVE",
"1084 713 CURVE SMOOTH",
"1084 978 OFFCURVE",
"944 1240 OFFCURVE",
"677 1240 CURVE SMOOTH"
);
}
);
width = 1403;
}
);
unicode = 00D0;
},
{
glyphname = E;
layers = (
{
layerId = "01C703B5-1257-45FB-9F79-4B1C4C3BA1BB";
paths = (
{
closed = 1;
nodes = (
"190 1242 LINE",
"60 1242 LINE",
"60 1412 LINE",
"1008 1412 LINE",
"1008 1242 LINE",
"386 1242 LINE",
"386 818 LINE",
"973 818 LINE",
"973 643 LINE",
"386 643 LINE",
"386 170 LINE",
"1017 170 LINE",
"1017 0 LINE",
"190 0 LINE"
);
}
);
width = 1138;
}
);
unicode = 0045;
},
{
glyphname = F;
layers = (
{
layerId = "01C703B5-1257-45FB-9F79-4B1C4C3BA1BB";
paths = (
{
closed = 1;
nodes = (
"61 1412 LINE",
"986 1412 LINE",
"986 1242 LINE",
"391 1242 LINE",
"391 789 LINE",
"950 789 LINE",
"950 614 LINE",
"391 614 LINE",
"391 0 LINE",
"191 0 LINE",
"191 1242 LINE",
"61 1242 LINE"
);
}
);
width = 1076;
}
);
unicode = 0046;
},
{
glyphname = G;
layers = (
{
layerId = "01C703B5-1257-45FB-9F79-4B1C4C3BA1BB";
paths = (
{
closed = 1;
nodes = (
"871 751 LINE",
"1231 751 LINE",
"1231 54 LINE",
"1099 12 OFFCURVE",
"952 -26 OFFCURVE",
"752 -26 CURVE SMOOTH",
"311 -26 OFFCURVE",
"105 281 OFFCURVE",
"105 700 CURVE SMOOTH",
"105 1261 OFFCURVE",
"450 1442 OFFCURVE",
"763 1442 CURVE SMOOTH",
"936 1442 OFFCURVE",
"1167 1369 OFFCURVE",
"1203 1093 CURVE",
"1027 1051 LINE",
"994 1198 OFFCURVE",
"892 1268 OFFCURVE",
"767 1268 CURVE SMOOTH",
"544 1268 OFFCURVE",
"313 1147 OFFCURVE",
"313 704 CURVE SMOOTH",
"313 369 OFFCURVE",
"434 149 OFFCURVE",
"785 149 CURVE SMOOTH",
"894 149 OFFCURVE",
"967 163 OFFCURVE",
"1027 175 CURVE",
"1041 175 LINE",
"1041 579 LINE",
"871 599 LINE"
);
}
);
width = 1368;
}
);
unicode = 0047;
},
{
glyphname = H;
layers = (
{
layerId = "01C703B5-1257-45FB-9F79-4B1C4C3BA1BB";
paths = (
{
closed = 1;
nodes = (
"191 1412 LINE",
"388 1412 LINE",
"388 818 LINE",
"1029 818 LINE",
"1029 1412 LINE",
"1226 1412 LINE",
"1226 0 LINE",
"1029 0 LINE",
"1029 640 LINE",
"388 640 LINE",
"388 0 LINE",
"191 0 LINE"
);
}
);
width = 1417;
}
);
unicode = 0048;
},
{
glyphname = I;
layers = (
{
layerId = "01C703B5-1257-45FB-9F79-4B1C4C3BA1BB";
paths = (
{
closed = 1;
nodes = (
"191 0 LINE",
"191 1412 LINE",
"387 1412 LINE",
"387 0 LINE"
);
}
);
width = 577;
}
);
unicode = 0049;
},
{
glyphname = J;
layers = (
{
layerId = "01C703B5-1257-45FB-9F79-4B1C4C3BA1BB";
paths = (
{
closed = 1;
nodes = (
"31 1412 LINE",
"385 1412 LINE",
"385 126 LINE SMOOTH",
"385 -150 OFFCURVE",
"246 -273 OFFCURVE",
"76 -273 CURVE SMOOTH",
"3 -273 OFFCURVE",
"-76 -251 OFFCURVE",
"-152 -208 CURVE",
"-117 -57 LINE",
"-65 -84 OFFCURVE",
"-14 -102 OFFCURVE",
"31 -102 CURVE SMOOTH",
"123 -102 OFFCURVE",
"191 -54 OFFCURVE",
"191 125 CURVE SMOOTH",
"191 1242 LINE",
"31 1242 LINE"
);
}
);
width = 575;
}
);
unicode = 004A;
},
{
glyphname = K;
layers = (
{
layerId = "01C703B5-1257-45FB-9F79-4B1C4C3BA1BB";
paths = (
{
closed = 1;
nodes = (
"1244 0 LINE",
"988 0 LINE",
"443 706 LINE",
"387 636 LINE",
"387 0 LINE",
"191 0 LINE",
"191 1412 LINE",
"387 1412 LINE",
"387 769 LINE",
"494 896 LINE",
"948 1412 LINE",
"1200 1412 LINE",
"626 785 LINE"
);
}
);
width = 1231;
}
);
unicode = 004B;
},
{
glyphname = L;
layers = (
{
layerId = "01C703B5-1257-45FB-9F79-4B1C4C3BA1BB";
paths = (
{
closed = 1;
nodes = (
"190 0 LINE",
"190 1412 LINE",
"387 1412 LINE",
"387 170 LINE",
"991 170 LINE",
"991 0 LINE"
);
}
);
width = 1025;
}
);
unicode = 004C;
},
{
glyphname = Lslash;
layers = (
{
layerId = "01C703B5-1257-45FB-9F79-4B1C4C3BA1BB";
paths = (
{
closed = 1;
nodes = (
"196 0 LINE",
"196 516 LINE",
"74 441 LINE",
"74 607 LINE",
"196 681 LINE",
"196 1412 LINE",
"391 1412 LINE",
"391 799 LINE",
"763 1025 LINE",
"763 859 LINE",
"391 635 LINE",
"391 180 LINE",
"996 180 LINE",
"996 0 LINE"
);
}
);
width = 1030;
}
);
unicode = 0141;
},
{
glyphname = M;
layers = (
{
layerId = "01C703B5-1257-45FB-9F79-4B1C4C3BA1BB";
paths = (
{
closed = 1;
nodes = (
"1404 0 LINE",
"1404 735 LINE SMOOTH",
"1404 773 OFFCURVE",
"1405 1005 OFFCURVE",
"1408 1146 CURVE",
"1384 1150 LINE",
"971 0 LINE",
"797 0 LINE",
"398 1139 LINE",
"373 1135 LINE",
"376 994 OFFCURVE",
"379 768 OFFCURVE",
"379 728 CURVE SMOOTH",
"379 0 LINE",
"190 0 LINE",
"190 1412 LINE",
"505 1412 LINE",
"889 252 LINE",
"1296 1412 LINE",
"1599 1412 LINE",
"1599 0 LINE"
);
}
);
width = 1789;
}
);
unicode = 004D;
},
{
glyphname = N;
layers = (
{
layerId = "01C703B5-1257-45FB-9F79-4B1C4C3BA1BB";
paths = (
{
closed = 1;
nodes = (
"191 0 LINE",
"191 1412 LINE",
"437 1412 LINE",
"1096 305 LINE",
"1118 310 LINE",
"1114 438 OFFCURVE",
"1112 699 OFFCURVE",
"1112 742 CURVE SMOOTH",
"1112 1412 LINE",
"1296 1412 LINE",
"1296 0 LINE",
"1059 0 LINE",
"387 1123 LINE",
"366 1118 LINE",
"370 988 OFFCURVE",
"372 720 OFFCURVE",
"372 675 CURVE SMOOTH",
"372 0 LINE"
);
}
);
width = 1487;
}
);
unicode = 004E;
},
{
glyphname = O;
layers = (
{
layerId = "01C703B5-1257-45FB-9F79-4B1C4C3BA1BB";
paths = (
{
closed = 1;
nodes = (
"279 -26 OFFCURVE",
"112 320 OFFCURVE",
"112 703 CURVE SMOOTH",
"112 1095 OFFCURVE",
"293 1442 OFFCURVE",
"742 1442 CURVE SMOOTH",
"1192 1442 OFFCURVE",
"1371 1095 OFFCURVE",
"1371 703 CURVE SMOOTH",
"1371 320 OFFCURVE",
"1206 -26 OFFCURVE",
"742 -26 CURVE SMOOTH"
);
},
{
closed = 1;
nodes = (
"1073 149 OFFCURVE",
"1164 408 OFFCURVE",
"1164 708 CURVE SMOOTH",
"1164 1020 OFFCURVE",
"1065 1268 OFFCURVE",
"742 1268 CURVE SMOOTH",
"420 1268 OFFCURVE",
"319 1020 OFFCURVE",
"319 708 CURVE SMOOTH",
"319 408 OFFCURVE",
"410 149 OFFCURVE",
"742 149 CURVE SMOOTH"
);
}
);
width = 1483;
}
);
unicode = 004F;
},
{
glyphname = Oslash;
layers = (
{
layerId = "01C703B5-1257-45FB-9F79-4B1C4C3BA1BB";
paths = (
{
closed = 1;
nodes = (
"1371 311 OFFCURVE",
"1192 -26 OFFCURVE",
"737 -26 CURVE SMOOTH",
"604 -26 OFFCURVE",
"503 0 OFFCURVE",
"415 47 CURVE",
"324 -103 LINE",
"195 -69 LINE",
"311 123 LINE",
"172 254 OFFCURVE",
"113 463 OFFCURVE",
"113 703 CURVE SMOOTH",
"113 886 OFFCURVE",
"154 1101 OFFCURVE",
"280 1248 CURVE",
"279 1248 LINE",
"407 1387 OFFCURVE",
"583 1442 OFFCURVE",
"747 1442 CURVE SMOOTH",
"868 1442 OFFCURVE",
"973 1416 OFFCURVE",
"1062 1368 CURVE",
"1152 1517 LINE",
"1283 1482 LINE",
"1167 1291 LINE",
"1300 1166 OFFCURVE",
"1371 975 OFFCURVE",
"1371 714 CURVE SMOOTH"
);
},
{
closed = 1;
nodes = (
"862 149 OFFCURVE",
"973 196 OFFCURVE",
"1049 284 CURVE",
"1139 398 OFFCURVE",
"1161 590 OFFCURVE",
"1161 715 CURVE SMOOTH",
"1161 886 OFFCURVE",
"1132 1020 OFFCURVE",
"1064 1120 CURVE",
"513 210 LINE",
"578 169 OFFCURVE",
"657 149 OFFCURVE",
"741 149 CURVE SMOOTH"
);
},
{
closed = 1;
nodes = (
"320 555 OFFCURVE",
"347 411 OFFCURVE",
"419 302 CURVE",
"968 1212 LINE",
"908 1248 OFFCURVE",
"837 1268 OFFCURVE",
"748 1268 CURVE SMOOTH",
"425 1268 OFFCURVE",
"320 1020 OFFCURVE",
"320 708 CURVE SMOOTH"
);
}
);
width = 1485;
}
);
unicode = 00D8;
},
{
glyphname = OE;
layers = (
{
layerId = "01C703B5-1257-45FB-9F79-4B1C4C3BA1BB";
paths = (
{
closed = 1;
nodes = (
"1875 0 LINE",
"743 0 LINE SMOOTH",
"406 0 OFFCURVE",
"107 230 OFFCURVE",
"107 715 CURVE SMOOTH",
"107 1025 OFFCURVE",
"243 1412 OFFCURVE",
"792 1412 CURVE SMOOTH",
"1869 1412 LINE",
"1869 1240 LINE",
"1208 1240 LINE",
"1208 817 LINE",
"1839 817 LINE",
"1839 640 LINE",
"1208 640 LINE",
"1208 180 LINE",
"1875 180 LINE"
);
},
{
closed = 1;
nodes = (
"1000 1240 LINE",
"792 1240 LINE SMOOTH",
"356 1240 OFFCURVE",
"321 888 OFFCURVE",
"321 718 CURVE SMOOTH",
"321 510 OFFCURVE",
"366 180 OFFCURVE",
"823 180 CURVE SMOOTH",
"1000 180 LINE"
);
}
);
width = 1999;
}
);
unicode = 0152;
},
{
glyphname = P;
layers = (
{
layerId = "01C703B5-1257-45FB-9F79-4B1C4C3BA1BB";
paths = (
{
closed = 1;
nodes = (
"61 1412 LINE",
"608 1412 LINE SMOOTH",
"890 1412 OFFCURVE",
"1101 1307 OFFCURVE",
"1101 1010 CURVE SMOOTH",
"1101 784 OFFCURVE",
"975 587 OFFCURVE",
"571 587 CURVE SMOOTH",
"387 587 LINE",
"387 0 LINE",
"191 0 LINE",
"191 1242 LINE",
"61 1242 LINE"
);
},
{
closed = 1;
nodes = (
"387 757 LINE",
"482 757 LINE SMOOTH",
"684 757 OFFCURVE",
"896 756 OFFCURVE",
"896 1010 CURVE SMOOTH",
"896 1207 OFFCURVE",
"752 1242 OFFCURVE",
"601 1242 CURVE SMOOTH",
"387 1242 LINE"
);
}
);
width = 1160;
}
);
unicode = 0050;
},
{
glyphname = Thorn;
layers = (
{
layerId = "01C703B5-1257-45FB-9F79-4B1C4C3BA1BB";
paths = (
{
closed = 1;
nodes = (
"189 1457 LINE",
"385 1457 LINE",
"385 1269 LINE",
"606 1269 LINE SMOOTH",
"890 1269 OFFCURVE",
"1099 1166 OFFCURVE",
"1099 868 CURVE SMOOTH",
"1099 568 OFFCURVE",
"905 444 OFFCURVE",
"569 444 CURVE SMOOTH",
"385 444 LINE",
"385 0 LINE",
"189 0 LINE"
);
},
{
closed = 1;
nodes = (
"385 614 LINE",
"480 614 LINE SMOOTH",
"682 614 OFFCURVE",
"894 613 OFFCURVE",
"894 868 CURVE SMOOTH",
"894 1062 OFFCURVE",
"750 1100 OFFCURVE",
"599 1100 CURVE SMOOTH",
"385 1100 LINE"
);
}
);
width = 1160;
}
);
unicode = 00DE;
},
{
glyphname = Q;
layers = (
{
layerId = "01C703B5-1257-45FB-9F79-4B1C4C3BA1BB";
paths = (
{
closed = 1;
nodes = (
"1352 507 OFFCURVE",
"1288 255 OFFCURVE",
"1064 92 CURVE",
"1152 68 OFFCURVE",
"1286 17 OFFCURVE",
"1362 -25 CURVE",
"1305 -180 LINE",
"1120 -107 OFFCURVE",
"945 -61 OFFCURVE",
"752 -24 CURVE",
"733 -25 OFFCURVE",
"717 -26 OFFCURVE",
"698 -26 CURVE SMOOTH",
"343 -26 OFFCURVE",
"111 243 OFFCURVE",
"111 703 CURVE SMOOTH",
"111 1095 OFFCURVE",
"304 1442 OFFCURVE",
"728 1442 CURVE SMOOTH",
"1177 1442 OFFCURVE",
"1352 1107 OFFCURVE",
"1352 722 CURVE SMOOTH"
);
},
{
closed = 1;
nodes = (
"319 419 OFFCURVE",
"420 149 OFFCURVE",
"730 149 CURVE SMOOTH",
"1076 149 OFFCURVE",
"1149 468 OFFCURVE",
"1149 704 CURVE SMOOTH",
"1149 1055 OFFCURVE",
"1010 1268 OFFCURVE",
"733 1268 CURVE SMOOTH",
"394 1268 OFFCURVE",
"319 940 OFFCURVE",
"319 700 CURVE SMOOTH"
);
}
);
width = 1467;
}
);
unicode = 0051;
},
{
glyphname = R;
layers = (
{
layerId = "01C703B5-1257-45FB-9F79-4B1C4C3BA1BB";
paths = (
{
closed = 1;
nodes = (
"61 1412 LINE",
"624 1412 LINE SMOOTH",
"869 1412 OFFCURVE",
"1113 1324 OFFCURVE",
"1113 1043 CURVE SMOOTH",
"1113 862 OFFCURVE",
"1014 753 OFFCURVE",
"854 692 CURVE",
"1175 616 OFFCURVE",
"1055 416 OFFCURVE",
"1183 0 CURVE",
"973 0 LINE",
"889 437 OFFCURVE",
"945 607 OFFCURVE",
"635 607 CURVE SMOOTH",
"387 607 LINE",
"387 0 LINE",
"191 0 LINE",
"191 1242 LINE",
"61 1242 LINE"
);
},
{
closed = 1;
nodes = (
"386 755 LINE",
"618 755 LINE SMOOTH",
"781 755 OFFCURVE",
"909 824 OFFCURVE",
"909 1019 CURVE SMOOTH",
"909 1227 OFFCURVE",
"737 1242 OFFCURVE",
"592 1242 CURVE SMOOTH",
"386 1242 LINE"
);
}
);
width = 1284;
}
);
unicode = 0052;
},
{
glyphname = S;
layers = (
{
layerId = "01C703B5-1257-45FB-9F79-4B1C4C3BA1BB";
paths = (
{
closed = 1;
nodes = (
"708 149 OFFCURVE",
"804 251 OFFCURVE",
"804 383 CURVE SMOOTH",
"804 517 OFFCURVE",
"717 573 OFFCURVE",
"500 651 CURVE SMOOTH",
"217 752 OFFCURVE",
"120 873 OFFCURVE",
"120 1070 CURVE SMOOTH",
"120 1313 OFFCURVE",
"313 1442 OFFCURVE",
"561 1442 CURVE SMOOTH",
"690 1442 OFFCURVE",
"830 1401 OFFCURVE",
"975 1305 CURVE",
"898 1159 LINE",
"777 1236 OFFCURVE",
"665 1268 OFFCURVE",
"565 1268 CURVE SMOOTH",
"400 1268 OFFCURVE",
"311 1195 OFFCURVE",
"311 1074 CURVE SMOOTH",
"311 939 OFFCURVE",
"380 887 OFFCURVE",
"582 821 CURVE",
"937 701 OFFCURVE",
"994 583 OFFCURVE",
"994 401 CURVE SMOOTH",
"994 137 OFFCURVE",
"812 -26 OFFCURVE",
"501 -26 CURVE SMOOTH",
"380 -26 OFFCURVE",
"240 9 OFFCURVE",
"87 93 CURVE",
"151 249 LINE",
"280 181 OFFCURVE",
"389 149 OFFCURVE",
"489 149 CURVE SMOOTH"
);
}
);
width = 1095;
}
);
unicode = 0053;
},
{
glyphname = T;
layers = (
{
layerId = "01C703B5-1257-45FB-9F79-4B1C4C3BA1BB";
paths = (
{
closed = 1;
nodes = (
"668 0 LINE",
"473 0 LINE",
"473 1242 LINE",
"35 1242 LINE",
"35 1412 LINE",
"1106 1412 LINE",
"1106 1242 LINE",
"668 1242 LINE"
);
}
);
width = 1140;
}
);
unicode = 0054;
},
{
glyphname = U;
layers = (
{
layerId = "01C703B5-1257-45FB-9F79-4B1C4C3BA1BB";
paths = (
{
closed = 1;
nodes = (
"1266 1412 LINE",
"1266 524 LINE SMOOTH",
"1266 193 OFFCURVE",
"1045 -26 OFFCURVE",
"721 -26 CURVE SMOOTH",
"398 -26 OFFCURVE",
"174 163 OFFCURVE",
"174 531 CURVE SMOOTH",
"174 1412 LINE",
"370 1412 LINE",
"370 519 LINE SMOOTH",
"370 222 OFFCURVE",
"554 150 OFFCURVE",
"725 150 CURVE SMOOTH",
"1029 150 OFFCURVE",
"1073 376 OFFCURVE",
"1073 524 CURVE SMOOTH",
"1073 1412 LINE"
);
}
);
width = 1441;
}
);
unicode = 0055;
},
{
glyphname = V;
layers = (
{
layerId = "01C703B5-1257-45FB-9F79-4B1C4C3BA1BB";
paths = (
{
closed = 1;
nodes = (
"1000 1412 LINE",
"1205 1412 LINE",
"706 0 LINE",
"500 0 LINE",
"15 1412 LINE",
"229 1412 LINE",
"467 638 LINE",
"601 194 LINE",
"612 194 LINE",
"757 641 LINE"
);
}
);
width = 1212;
}
);
unicode = 0056;
},
{
glyphname = W;
layers = (
{
layerId = "01C703B5-1257-45FB-9F79-4B1C4C3BA1BB";
paths = (
{
closed = 1;
nodes = (
"1068 1412 LINE",
"1369 240 LINE",
"1390 240 LINE",
"1490 707 LINE",
"1666 1412 LINE",
"1874 1412 LINE",
"1486 0 LINE",
"1285 0 LINE",
"1084 735 LINE",
"961 1219 LINE",
"951 1219 LINE",
"828 735 LINE",
"627 0 LINE",
"426 0 LINE",
"38 1412 LINE",
"246 1412 LINE",
"422 707 LINE",
"522 240 LINE",
"543 240 LINE",
"844 1412 LINE",
"1067 1412 LINE"
);
}
);
width = 1898;
}
);
unicode = 0057;
},
{
glyphname = X;
layers = (
{
layerId = "01C703B5-1257-45FB-9F79-4B1C4C3BA1BB";
paths = (
{
closed = 1;
nodes = (
"1242 0 LINE",
"1003 0 LINE",
"624 599 LINE",
"235 0 LINE",
"12 0 LINE",
"509 737 LINE",
"57 1412 LINE",
"291 1412 LINE",
"640 878 LINE",
"987 1412 LINE",
"1212 1412 LINE",
"754 738 LINE"
);
}
);
width = 1261;
}
);
unicode = 0058;
},
{
glyphname = Y;
layers = (
{
layerId = "01C703B5-1257-45FB-9F79-4B1C4C3BA1BB";
paths = (
{
closed = 1;
nodes = (
"594 723 LINE",
"963 1412 LINE",
"1183 1412 LINE",
"687 547 LINE",
"687 0 LINE",
"487 0 LINE",
"487 547 LINE",
"-9 1412 LINE",
"223 1412 LINE"
);
}
);
width = 1174;
}
);
unicode = 0059;
},
{
glyphname = Z;
layers = (
{
layerId = "01C703B5-1257-45FB-9F79-4B1C4C3BA1BB";
paths = (
{
closed = 1;
nodes = (
"1082 0 LINE",
"89 0 LINE",
"89 169 LINE",
"831 1242 LINE",
"110 1242 LINE",
"110 1412 LINE",
"1064 1412 LINE",
"1064 1235 LINE",
"320 170 LINE",
"1082 170 LINE"
);
}
);
width = 1173;
}
);
unicode = 005A;
},
{
glyphname = a;
layers = (
{
layerId = "01C703B5-1257-45FB-9F79-4B1C4C3BA1BB";
paths = (
{
closed = 1;
nodes = (
"154 883 LINE",
"261 950 OFFCURVE",
"408 1000 OFFCURVE",
"533 1000 CURVE SMOOTH",
"726 1000 OFFCURVE",
"887 910 OFFCURVE",
"887 685 CURVE SMOOTH",
"887 289 LINE SMOOTH",
"887 149 OFFCURVE",
"897 61 OFFCURVE",
"910 0 CURVE",
"741 0 LINE",
"737 23 OFFCURVE",
"734 86 OFFCURVE",
"731 159 CURVE",
"643 17 OFFCURVE",
"520 -17 OFFCURVE",
"405 -17 CURVE SMOOTH",
"204 -17 OFFCURVE",
"77 89 OFFCURVE",
"77 267 CURVE SMOOTH",
"77 353 OFFCURVE",
"114 460 OFFCURVE",
"223 529 CURVE SMOOTH",
"338 601 OFFCURVE",
"513 602 OFFCURVE",
"653 602 CURVE SMOOTH",
"707 602 LINE",
"707 673 LINE SMOOTH",
"707 814 OFFCURVE",
"626 860 OFFCURVE",
"526 860 CURVE SMOOTH",
"417 860 OFFCURVE",
"284 807 OFFCURVE",
"209 761 CURVE"
);
},
{
closed = 1;
nodes = (
"696 257 OFFCURVE",
"706 338 OFFCURVE",
"706 471 CURVE",
"677 471 LINE SMOOTH",
"494 471 OFFCURVE",
"259 460 OFFCURVE",
"259 264 CURVE SMOOTH",
"259 195 OFFCURVE",
"306 122 OFFCURVE",
"417 122 CURVE SMOOTH",
"513 122 OFFCURVE",
"599 146 OFFCURVE",
"646 202 CURVE"
);
}
);
width = 1039;
}
);
unicode = 0061;
},
{
glyphname = ae;
layers = (
{
layerId = "01C703B5-1257-45FB-9F79-4B1C4C3BA1BB";
paths = (
{
closed = 1;
nodes = (
"1529 116 LINE",
"1443 46 OFFCURVE",
"1347 -22 OFFCURVE",
"1179 -22 CURVE SMOOTH",
"1054 -22 OFFCURVE",
"884 34 OFFCURVE",
"804 216 CURVE",
"724 36 OFFCURVE",
"549 -26 OFFCURVE",
"405 -26 CURVE SMOOTH",
"202 -26 OFFCURVE",
"76 90 OFFCURVE",
"76 279 CURVE SMOOTH",
"76 547 OFFCURVE",
"360 632 OFFCURVE",
"603 632 CURVE SMOOTH",
"639 632 OFFCURVE",
"673 630 OFFCURVE",
"706 627 CURVE",
"706 688 LINE SMOOTH",
"706 867 OFFCURVE",
"624 907 OFFCURVE",
"506 907 CURVE SMOOTH",
"402 907 OFFCURVE",
"328 862 OFFCURVE",
"247 808 CURVE",
"215 845 OFFCURVE",
"181 881 OFFCURVE",
"149 916 CURVE",
"262 1007 OFFCURVE",
"362 1060 OFFCURVE",
"507 1060 CURVE SMOOTH",
"656 1060 OFFCURVE",
"761 1013 OFFCURVE",
"833 893 CURVE",
"915 1004 OFFCURVE",
"1042 1059 OFFCURVE",
"1152 1059 CURVE SMOOTH",
"1440 1059 OFFCURVE",
"1565 839 OFFCURVE",
"1565 580 CURVE SMOOTH",
"1565 480 LINE",
"898 480 LINE",
"901 292 OFFCURVE",
"981 139 OFFCURVE",
"1183 139 CURVE SMOOTH",
"1300 139 OFFCURVE",
"1392 174 OFFCURVE",
"1480 246 CURVE"
);
},
{
closed = 1;
nodes = (
"1020 904 OFFCURVE",
"925 816 OFFCURVE",
"905 647 CURVE",
"905 631 LINE",
"1368 631 LINE",
"1363 774 OFFCURVE",
"1317 904 OFFCURVE",
"1148 904 CURVE SMOOTH"
);
},
{
closed = 1;
nodes = (
"693 276 OFFCURVE",
"705 353 OFFCURVE",
"705 491 CURVE",
"676 491 LINE SMOOTH",
"532 491 OFFCURVE",
"269 488 OFFCURVE",
"269 292 CURVE SMOOTH",
"269 208 OFFCURVE",
"320 131 OFFCURVE",
"448 131 CURVE SMOOTH",
"532 131 OFFCURVE",
"602 160 OFFCURVE",
"645 217 CURVE"
);
}
);
width = 1658;
}
);
unicode = 00E6;
},
{
glyphname = b;
layers = (
{
layerId = "01C703B5-1257-45FB-9F79-4B1C4C3BA1BB";
paths = (
{
closed = 1;
nodes = (
"345 1357 LINE",
"345 1016 LINE",
"342 855 LINE",
"398 929 OFFCURVE",
"487 1000 OFFCURVE",
"622 1000 CURVE SMOOTH",
"933 1000 OFFCURVE",
"1058 771 OFFCURVE",
"1058 502 CURVE SMOOTH",
"1058 205 OFFCURVE",
"932 -17 OFFCURVE",
"615 -17 CURVE SMOOTH",
"528 -17 OFFCURVE",
"418 23 OFFCURVE",
"336 132 CURVE",
"331 105 OFFCURVE",
"323 56 OFFCURVE",
"320 0 CURVE",
"158 0 LINE",
"158 1215 LINE",
"56 1215 LINE",
"36 1357 LINE"
);
},
{
closed = 1;
nodes = (
"345 338 LINE SMOOTH",
"345 250 OFFCURVE",
"427 122 OFFCURVE",
"619 122 CURVE SMOOTH",
"807 122 OFFCURVE",
"876 300 OFFCURVE",
"876 496 CURVE SMOOTH",
"876 676 OFFCURVE",
"825 859 OFFCURVE",
"613 859 CURVE SMOOTH",
"473 859 OFFCURVE",
"345 739 OFFCURVE",
"345 650 CURVE SMOOTH"
);
}
);
width = 1158;
}
);
unicode = 0062;
},
{
glyphname = c;
layers = (
{
layerId = "01C703B5-1257-45FB-9F79-4B1C4C3BA1BB";
paths = (
{
closed = 1;
nodes = (
"862 83 LINE",
"758 15 OFFCURVE",
"638 -17 OFFCURVE",
"530 -17 CURVE SMOOTH",
"309 -17 OFFCURVE",
"98 135 OFFCURVE",
"98 502 CURVE SMOOTH",
"98 842 OFFCURVE",
"332 1000 OFFCURVE",
"548 1000 CURVE SMOOTH",
"700 1000 OFFCURVE",
"853 930 OFFCURVE",
"896 734 CURVE",
"737 708 LINE",
"708 825 OFFCURVE",
"630 859 OFFCURVE",
"551 859 CURVE SMOOTH",
"424 859 OFFCURVE",
"283 753 OFFCURVE",
"283 508 CURVE SMOOTH",
"283 264 OFFCURVE",
"362 122 OFFCURVE",
"547 122 CURVE SMOOTH",
"662 122 OFFCURVE",
"744 164 OFFCURVE",
"805 208 CURVE"
);
}
);
width = 960;
}
);
unicode = 0063;
},
{
glyphname = d;
layers = (
{
layerId = "01C703B5-1257-45FB-9F79-4B1C4C3BA1BB";
paths = (
{
closed = 1;
nodes = (
"1000 1357 LINE",
"1000 0 LINE",
"838 0 LINE",
"831 53 LINE SMOOTH",
"827 84 OFFCURVE",
"825 116 OFFCURVE",
"822 132 CURVE",
"737 23 OFFCURVE",
"630 -17 OFFCURVE",
"543 -17 CURVE SMOOTH",
"225 -17 OFFCURVE",
"100 205 OFFCURVE",
"100 502 CURVE SMOOTH",
"100 771 OFFCURVE",
"223 1000 OFFCURVE",
"536 1000 CURVE SMOOTH",
"671 1000 OFFCURVE",
"760 929 OFFCURVE",
"816 855 CURVE",
"813 1016 LINE",
"813 1215 LINE",
"710 1215 LINE",
"690 1357 LINE"
);
},
{
closed = 1;
nodes = (
"813 650 LINE SMOOTH",
"813 739 OFFCURVE",
"685 859 OFFCURVE",
"545 859 CURVE SMOOTH",
"333 859 OFFCURVE",
"282 676 OFFCURVE",
"282 496 CURVE SMOOTH",
"282 300 OFFCURVE",
"351 122 OFFCURVE",
"539 122 CURVE SMOOTH",
"731 122 OFFCURVE",
"813 250 OFFCURVE",
"813 338 CURVE SMOOTH"
);
}
);
width = 1159;
}
);
unicode = 0064;
},
{
glyphname = eth;
layers = (
{
layerId = "01C703B5-1257-45FB-9F79-4B1C4C3BA1BB";
paths = (
{
closed = 1;
nodes = (
"510 1076 LINE",
"697 1145 LINE",
"632 1229 OFFCURVE",
"549 1267 OFFCURVE",
"453 1267 CURVE SMOOTH",
"384 1267 OFFCURVE",
"296 1247 OFFCURVE",
"204 1206 CURVE",
"151 1328 LINE",
"265 1381 OFFCURVE",
"370 1408 OFFCURVE",
"465 1408 CURVE SMOOTH",
"614 1408 OFFCURVE",
"751 1335 OFFCURVE",
"843 1202 CURVE",
"1045 1280 LINE",
"1078 1173 LINE",
"896 1106 LINE",
"950 981 OFFCURVE",
"977 826 OFFCURVE",
"977 643 CURVE SMOOTH",
"977 119 OFFCURVE",
"744 -22 OFFCURVE",
"512 -22 CURVE SMOOTH",
"276 -22 OFFCURVE",
"79 129 OFFCURVE",
"79 435 CURVE SMOOTH",
"79 712 OFFCURVE",
"257 861 OFFCURVE",
"486 861 CURVE SMOOTH",
"608 861 OFFCURVE",
"712 808 OFFCURVE",
"798 702 CURVE",
"798 854 OFFCURVE",
"782 957 OFFCURVE",
"749 1048 CURVE",
"726 1041 OFFCURVE",
"677 1022 OFFCURVE",
"630 1004 CURVE SMOOTH",
"543 970 LINE"
);
},
{
closed = 1;
nodes = (
"355 723 OFFCURVE",
"254 614 OFFCURVE",
"254 436 CURVE SMOOTH",
"254 244 OFFCURVE",
"353 122 OFFCURVE",
"513 122 CURVE SMOOTH",
"673 122 OFFCURVE",
"788 264 OFFCURVE",
"788 449 CURVE SMOOTH",
"788 600 OFFCURVE",
"683 723 OFFCURVE",
"518 723 CURVE SMOOTH"
);
}
);
width = 1102;
}
);
unicode = 00F0;
},
{
glyphname = e;
layers = (
{
layerId = "01C703B5-1257-45FB-9F79-4B1C4C3BA1BB";
paths = (
{
closed = 1;
nodes = (
"925 79 LINE",
"805 15 OFFCURVE",
"684 -17 OFFCURVE",
"567 -17 CURVE SMOOTH",
"311 -17 OFFCURVE",
"99 143 OFFCURVE",
"99 490 CURVE SMOOTH",
"99 760 OFFCURVE",
"234 1000 OFFCURVE",
"538 1000 CURVE SMOOTH",
"826 1000 OFFCURVE",
"951 792 OFFCURVE",
"951 544 CURVE SMOOTH",
"951 463 LINE",
"285 463 LINE",
"285 445 LINE SMOOTH",
"285 218 OFFCURVE",
"417 120 OFFCURVE",
"581 120 CURVE SMOOTH",
"673 120 OFFCURVE",
"772 150 OFFCURVE",
"868 207 CURVE"
);
},
{
closed = 1;
nodes = (
"403 859 OFFCURVE",
"291 778 OFFCURVE",
"291 591 CURVE",
"755 591 LINE",
"750 734 OFFCURVE",
"703 859 OFFCURVE",
"534 859 CURVE SMOOTH"
);
}
);
width = 1043;
}
);
unicode = 0065;
},
{
glyphname = f;
layers = (
{
layerId = "01C703B5-1257-45FB-9F79-4B1C4C3BA1BB";
paths = (
{
closed = 1;
nodes = (
"649 840 LINE",
"420 840 LINE",
"420 0 LINE",
"231 0 LINE",
"231 840 LINE",
"43 840 LINE",
"43 966 LINE",
"232 983 LINE",
"232 1021 LINE SMOOTH",
"232 1241 OFFCURVE",
"298 1356 OFFCURVE",
"535 1356 CURVE SMOOTH",
"591 1356 OFFCURVE",
"653 1346 OFFCURVE",
"709 1331 CURVE",
"685 1185 LINE",
"644 1193 OFFCURVE",
"600 1200 OFFCURVE",
"561 1200 CURVE SMOOTH",
"439 1200 OFFCURVE",
"420 1146 OFFCURVE",
"420 1042 CURVE SMOOTH",
"420 984 LINE",
"649 984 LINE"
);
}
);
width = 686;
}
);
unicode = 0066;
},
{
glyphname = g;
layers = (
{
layerId = "01C703B5-1257-45FB-9F79-4B1C4C3BA1BB";
paths = (
{
closed = 1;
nodes = (
"950 395 OFFCURVE",
"744 295 OFFCURVE",
"532 295 CURVE SMOOTH",
"463 295 OFFCURVE",
"402 303 OFFCURVE",
"347 320 CURVE",
"310 279 OFFCURVE",
"289 235 OFFCURVE",
"289 214 CURVE SMOOTH",
"289 175 OFFCURVE",
"294 151 OFFCURVE",
"377 151 CURVE SMOOTH",
"524 151 LINE SMOOTH",
"761 151 OFFCURVE",
"1060 124 OFFCURVE",
"1060 -97 CURVE SMOOTH",
"1060 -354 OFFCURVE",
"885 -479 OFFCURVE",
"549 -495 CURVE",
"294 -495 OFFCURVE",
"96 -390 OFFCURVE",
"96 -250 CURVE SMOOTH",
"96 -190 OFFCURVE",
"138 -76 OFFCURVE",
"245 7 CURVE",
"242 23 LINE",
"199 26 OFFCURVE",
"118 58 OFFCURVE",
"118 155 CURVE SMOOTH",
"118 226 OFFCURVE",
"162 306 OFFCURVE",
"251 394 CURVE",
"151 454 OFFCURVE",
"106 543 OFFCURVE",
"106 635 CURVE SMOOTH",
"106 812 OFFCURVE",
"248 1000 OFFCURVE",
"531 1000 CURVE SMOOTH",
"656 1000 OFFCURVE",
"743 963 OFFCURVE",
"816 903 CURVE",
"879 945 OFFCURVE",
"973 996 OFFCURVE",
"1079 999 CURVE",
"1109 794 LINE",
"1080 797 LINE",
"1064 800 OFFCURVE",
"1047 799 OFFCURVE",
"1039 800 CURVE",
"1000 800 OFFCURVE",
"950 792 OFFCURVE",
"909 780 CURVE",
"945 733 OFFCURVE",
"950 690 OFFCURVE",
"950 647 CURVE SMOOTH"
);
},
{
closed = 1;
nodes = (
"646 -341 OFFCURVE",
"727 -319 OFFCURVE",
"787 -283 CURVE SMOOTH",
"847 -247 OFFCURVE",
"880 -195 OFFCURVE",
"880 -95 CURVE SMOOTH",
"880 -34 OFFCURVE",
"771 -2 OFFCURVE",
"558 -2 CURVE SMOOTH",
"494 -2 OFFCURVE",
"432 -2 OFFCURVE",
"367 -1 CURVE",
"311 -65 OFFCURVE",
"279 -178 OFFCURVE",
"279 -239 CURVE SMOOTH",
"279 -307 OFFCURVE",
"377 -341 OFFCURVE",
"553 -341 CURVE SMOOTH"
);
},
{
closed = 1;
nodes = (
"279 519 OFFCURVE",
"358 433 OFFCURVE",
"530 433 CURVE SMOOTH",
"734 433 OFFCURVE",
"786 544 OFFCURVE",
"786 654 CURVE SMOOTH",
"786 758 OFFCURVE",
"725 864 OFFCURVE",
"536 864 CURVE SMOOTH",
"406 864 OFFCURVE",
"279 806 OFFCURVE",
"279 642 CURVE SMOOTH"
);
}
);
width = 1139;
}
);
unicode = 0067;
},
{
glyphname = h;
layers = (
{
layerId = "01C703B5-1257-45FB-9F79-4B1C4C3BA1BB";
paths = (
{
closed = 1;
nodes = (
"348 1357 LINE",
"348 1044 LINE",
"346 856 LINE",
"430 944 OFFCURVE",
"539 1000 OFFCURVE",
"652 1000 CURVE SMOOTH",
"891 1000 OFFCURVE",
"1002 861 OFFCURVE",
"1002 624 CURVE SMOOTH",
"1002 0 LINE",
"816 0 LINE",
"816 614 LINE SMOOTH",
"816 729 OFFCURVE",
"781 859 OFFCURVE",
"608 859 CURVE SMOOTH",
"487 859 OFFCURVE",
"425 803 OFFCURVE",
"392 751 CURVE SMOOTH",
"357 695 OFFCURVE",
"348 610 OFFCURVE",
"348 526 CURVE SMOOTH",
"348 0 LINE",
"159 0 LINE",
"159 1215 LINE",
"57 1215 LINE",
"37 1357 LINE"
);
}
);
width = 1149;
}
);
unicode = 0068;
},
{
glyphname = i;
layers = (
{
layerId = "01C703B5-1257-45FB-9F79-4B1C4C3BA1BB";
paths = (
{
closed = 1;
nodes = (
"393 0 LINE",
"207 0 LINE",
"207 840 LINE",
"55 840 LINE",
"55 984 LINE",
"393 984 LINE"
);
},
{
closed = 1;
nodes = (
"411 1323 LINE",
"411 1157 LINE",
"189 1157 LINE",
"189 1323 LINE"
);
}
);
width = 552;
}
);
unicode = 0069;
},
{
glyphname = dotlessi;
layers = (
{
layerId = "01C703B5-1257-45FB-9F79-4B1C4C3BA1BB";
paths = (
{
closed = 1;
nodes = (
"155 1019 LINE",
"339 1019 LINE",
"339 0 LINE",
"155 0 LINE"
);
}
);
width = 497;
}
);
unicode = 0131;
},
{
glyphname = j;
layers = (
{
layerId = "01C703B5-1257-45FB-9F79-4B1C4C3BA1BB";
paths = (
{
closed = 1;
nodes = (
"77 -429 OFFCURVE",
"37 -423 OFFCURVE",
"-3 -408 CURVE",
"-3 -261 LINE",
"33 -272 OFFCURVE",
"61 -278 OFFCURVE",
"92 -278 CURVE SMOOTH",
"169 -278 OFFCURVE",
"210 -247 OFFCURVE",
"210 -127 CURVE SMOOTH",
"210 840 LINE",
"59 840 LINE",
"59 984 LINE",
"399 984 LINE",
"399 -124 LINE SMOOTH",
"399 -289 OFFCURVE",
"330 -429 OFFCURVE",
"125 -429 CURVE SMOOTH"
);
},
{
closed = 1;
nodes = (
"420 1323 LINE",
"420 1157 LINE",
"199 1157 LINE",
"199 1323 LINE"
);
}
);
width = 558;
}
);
unicode = 006A;
},
{
glyphname = k;
layers = (
{
layerId = "01C703B5-1257-45FB-9F79-4B1C4C3BA1BB";
paths = (
{
closed = 1;
nodes = (
"348 1357 LINE",
"348 551 LINE",
"478 620 LINE SMOOTH",
"658 716 OFFCURVE",
"756 863 OFFCURVE",
"803 984 CURVE",
"999 984 LINE",
"938 775 OFFCURVE",
"828 636 OFFCURVE",
"676 533 CURVE",
"1028 0 LINE",
"817 0 LINE",
"517 473 LINE",
"348 387 LINE",
"348 0 LINE",
"158 0 LINE",
"158 1215 LINE",
"56 1215 LINE",
"36 1357 LINE"
);
}
);
width = 1041;
}
);
unicode = 006B;
},
{
glyphname = l;
layers = (
{
layerId = "01C703B5-1257-45FB-9F79-4B1C4C3BA1BB";
paths = (
{
closed = 1;
nodes = (
"369 1357 LINE",
"369 370 LINE SMOOTH",
"369 166 OFFCURVE",
"369 131 OFFCURVE",
"524 131 CURVE",
"494 -17 LINE",
"180 -17 OFFCURVE",
"180 113 OFFCURVE",
"180 421 CURVE SMOOTH",
"180 1215 LINE",
"78 1215 LINE",
"58 1357 LINE"
);
}
);
width = 563;
}
);
unicode = 006C;
},
{
glyphname = lslash;
layers = (
{
layerId = "01C703B5-1257-45FB-9F79-4B1C4C3BA1BB";
paths = (
{
closed = 1;
nodes = (
"392 571 LINE",
"35 443 LINE",
"35 606 LINE",
"392 735 LINE",
"392 1449 LINE",
"581 1449 LINE",
"581 804 LINE",
"943 934 LINE",
"943 770 LINE",
"581 639 LINE",
"581 0 LINE",
"392 0 LINE"
);
}
);
width = 973;
}
);
unicode = 0142;
},
{
glyphname = m;
layers = (
{
layerId = "01C703B5-1257-45FB-9F79-4B1C4C3BA1BB";
paths = (
{
closed = 1;
nodes = (
"203 0 LINE",
"203 840 LINE",
"81 840 LINE",
"71 984 LINE",
"378 984 LINE",
"388 857 LINE",
"484 961 OFFCURVE",
"595 1000 OFFCURVE",
"684 1000 CURVE SMOOTH",
"852 1000 OFFCURVE",
"941 931 OFFCURVE",
"997 832 CURVE",
"1056 920 OFFCURVE",
"1163 1000 OFFCURVE",
"1320 1000 CURVE SMOOTH",
"1499 1000 OFFCURVE",
"1669 920 OFFCURVE",
"1669 646 CURVE SMOOTH",
"1669 0 LINE",
"1483 0 LINE",
"1483 637 LINE SMOOTH",
"1483 793 OFFCURVE",
"1416 859 OFFCURVE",
"1279 859 CURVE SMOOTH",
"1046 859 OFFCURVE",
"1031 684 OFFCURVE",
"1031 552 CURVE SMOOTH",
"1031 0 LINE",
"844 0 LINE",
"844 646 LINE SMOOTH",
"844 779 OFFCURVE",
"777 859 OFFCURVE",
"644 859 CURVE SMOOTH",
"535 859 OFFCURVE",
"468 806 OFFCURVE",
"439 764 CURVE SMOOTH",
"400 708 OFFCURVE",
"392 630 OFFCURVE",
"392 542 CURVE SMOOTH",
"392 0 LINE"
);
}
);
width = 1817;
}
);
unicode = 006D;
},
{
glyphname = n;
layers = (
{
layerId = "01C703B5-1257-45FB-9F79-4B1C4C3BA1BB";
paths = (
{
closed = 1;
nodes = (
"862 0 LINE",
"862 635 LINE SMOOTH",
"862 780 OFFCURVE",
"787 859 OFFCURVE",
"650 859 CURVE SMOOTH",
"489 859 OFFCURVE",
"392 752 OFFCURVE",
"392 545 CURVE SMOOTH",
"392 0 LINE",
"203 0 LINE",
"203 840 LINE",
"101 840 LINE",
"81 984 LINE",
"378 984 LINE",
"388 858 LINE",
"469 950 OFFCURVE",
"550 1000 OFFCURVE",
"696 1000 CURVE SMOOTH",
"842 1000 OFFCURVE",
"1048 928 OFFCURVE",
"1048 650 CURVE SMOOTH",
"1048 0 LINE"
);
}
);
width = 1196;
}
);
unicode = 006E;
},
{
glyphname = o;
layers = (
{
layerId = "01C703B5-1257-45FB-9F79-4B1C4C3BA1BB";
paths = (
{
closed = 1;
nodes = (
"1031 190 OFFCURVE",
"867 -17 OFFCURVE",
"560 -17 CURVE SMOOTH",
"269 -17 OFFCURVE",
"98 184 OFFCURVE",
"98 483 CURVE SMOOTH",
"98 763 OFFCURVE",
"238 1000 OFFCURVE",
"572 1000 CURVE SMOOTH",
"900 1000 OFFCURVE",
"1031 751 OFFCURVE",
"1031 492 CURVE SMOOTH"
);
},
{
closed = 1;
nodes = (
"284 271 OFFCURVE",
"365 122 OFFCURVE",
"564 122 CURVE SMOOTH",
"725 122 OFFCURVE",
"844 230 OFFCURVE",
"844 488 CURVE SMOOTH",
"844 731 OFFCURVE",
"751 859 OFFCURVE",
"570 859 CURVE SMOOTH",
"421 859 OFFCURVE",
"284 752 OFFCURVE",
"284 484 CURVE SMOOTH"
);
}
);
width = 1129;
}
);
unicode = 006F;
},
{
glyphname = oslash;
layers = (
{
layerId = "01C703B5-1257-45FB-9F79-4B1C4C3BA1BB";
paths = (
{
closed = 1;
nodes = (
"1031 200 OFFCURVE",
"867 -19 OFFCURVE",
"560 -19 CURVE SMOOTH",
"480 -19 OFFCURVE",
"410 -3 OFFCURVE",
"349 26 CURVE",
"262 -119 LINE",
"133 -85 LINE",
"244 99 LINE",
"148 191 OFFCURVE",
"98 328 OFFCURVE",
"98 503 CURVE SMOOTH",
"98 795 OFFCURVE",
"238 1041 OFFCURVE",
"572 1041 CURVE SMOOTH",
"656 1041 OFFCURVE",
"724 1024 OFFCURVE",
"784 995 CURVE",
"890 1171 LINE",
"1021 1136 LINE",
"889 918 LINE",
"988 816 OFFCURVE",
"1031 667 OFFCURVE",
"1031 512 CURVE SMOOTH"
);
},
{
closed = 1;
nodes = (
"284 404 OFFCURVE",
"300 318 OFFCURVE",
"337 253 CURVE",
"703 861 LINE",
"664 884 OFFCURVE",
"620 895 OFFCURVE",
"570 895 CURVE SMOOTH",
"421 895 OFFCURVE",
"284 784 OFFCURVE",
"284 504 CURVE SMOOTH"
);
},
{
closed = 1;
nodes = (
"725 127 OFFCURVE",
"844 239 OFFCURVE",
"844 508 CURVE SMOOTH",
"844 611 OFFCURVE",
"827 696 OFFCURVE",
"794 761 CURVE",
"429 158 LINE",
"466 137 OFFCURVE",
"511 127 OFFCURVE",
"564 127 CURVE SMOOTH"
);
}
);
width = 1129;
}
);
unicode = 00F8;
},
{
glyphname = oe;
layers = (
{
layerId = "01C703B5-1257-45FB-9F79-4B1C4C3BA1BB";
paths = (
{
closed = 1;
nodes = (
"220 -26 OFFCURVE",
"94 261 OFFCURVE",
"94 489 CURVE SMOOTH",
"94 761 OFFCURVE",
"270 1000 OFFCURVE",
"589 1000 CURVE SMOOTH",
"821 1000 OFFCURVE",
"915 859 OFFCURVE",
"962 772 CURVE",
"1059 993 OFFCURVE",
"1276 1000 OFFCURVE",
"1331 1000 CURVE SMOOTH",
"1706 1000 OFFCURVE",
"1737 684 OFFCURVE",
"1741 504 CURVE",
"1741 458 LINE",
"1061 458 LINE",
"1058 445 OFFCURVE",
"1057 430 OFFCURVE",
"1057 414 CURVE SMOOTH",
"1057 268 OFFCURVE",
"1172 124 OFFCURVE",
"1324 124 CURVE SMOOTH",
"1439 124 OFFCURVE",
"1522 204 OFFCURVE",
"1538 319 CURVE",
"1727 319 LINE",
"1687 28 OFFCURVE",
"1451 -27 OFFCURVE",
"1331 -27 CURVE SMOOTH",
"1166 -27 OFFCURVE",
"1021 74 OFFCURVE",
"960 198 CURVE",
"883 57 OFFCURVE",
"752 -26 OFFCURVE",
"579 -26 CURVE SMOOTH"
);
},
{
closed = 1;
nodes = (
"302 444 OFFCURVE",
"300 122 OFFCURVE",
"591 122 CURVE SMOOTH",
"809 122 OFFCURVE",
"873 333 OFFCURVE",
"873 495 CURVE SMOOTH",
"873 671 OFFCURVE",
"800 851 OFFCURVE",
"594 851 CURVE SMOOTH",
"366 851 OFFCURVE",
"302 655 OFFCURVE",
"302 503 CURVE SMOOTH"
);
},
{
closed = 1;
nodes = (
"1128 855 OFFCURVE",
"1075 696 OFFCURVE",
"1067 597 CURVE",
"1541 597 LINE",
"1537 682 OFFCURVE",
"1517 855 OFFCURVE",
"1324 855 CURVE SMOOTH"
);
}
);
width = 1832;
}
);
unicode = 0153;
},
{
glyphname = p;
layers = (
{
layerId = "01C703B5-1257-45FB-9F79-4B1C4C3BA1BB";
paths = (
{
closed = 1;
nodes = (
"159 -400 LINE",
"159 691 LINE",
"159 984 LINE",
"330 984 LINE",
"343 837 LINE",
"431 962 OFFCURVE",
"556 1000 OFFCURVE",
"657 1000 CURVE SMOOTH",
"873 1000 OFFCURVE",
"1059 834 OFFCURVE",
"1059 490 CURVE SMOOTH",
"1059 145 OFFCURVE",
"866 -17 OFFCURVE",
"638 -17 CURVE SMOOTH",
"513 -17 OFFCURVE",
"417 34 OFFCURVE",
"341 107 CURVE",
"346 -72 LINE",
"346 -400 LINE"
);
},
{
closed = 1;
nodes = (
"832 121 OFFCURVE",
"877 324 OFFCURVE",
"877 496 CURVE SMOOTH",
"877 700 OFFCURVE",
"813 859 OFFCURVE",
"621 859 CURVE SMOOTH",
"474 859 OFFCURVE",
"346 741 OFFCURVE",
"346 648 CURVE SMOOTH",
"346 348 LINE SMOOTH",
"346 246 OFFCURVE",
"431 121 OFFCURVE",
"611 121 CURVE SMOOTH"
);
}
);
width = 1159;
}
);
unicode = 0070;
},
{
glyphname = thorn;
layers = (
{
layerId = "01C703B5-1257-45FB-9F79-4B1C4C3BA1BB";
paths = (
{
closed = 1;
nodes = (
"158 -416 LINE",
"158 170 OFFCURVE",
"159 321 OFFCURVE",
"159 471 CURVE SMOOTH",
"159 1449 LINE",
"345 1449 LINE",
"345 1124 LINE",
"343 892 LINE",
"404 966 OFFCURVE",
"500 1042 OFFCURVE",
"650 1042 CURVE SMOOTH",
"938 1042 OFFCURVE",
"1066 797 OFFCURVE",
"1066 522 CURVE SMOOTH",
"1066 263 OFFCURVE",
"951 -15 OFFCURVE",
"644 -15 CURVE SMOOTH",
"551 -15 OFFCURVE",
"430 29 OFFCURVE",
"340 132 CURVE",
"345 19 LINE",
"345 -416 LINE"
);
},
{
closed = 1;
nodes = (
"344 361 OFFCURVE",
"372 135 OFFCURVE",
"609 135 CURVE SMOOTH",
"806 135 OFFCURVE",
"869 317 OFFCURVE",
"869 516 CURVE SMOOTH",
"869 685 OFFCURVE",
"825 895 OFFCURVE",
"613 895 CURVE SMOOTH",
"372 895 OFFCURVE",
"344 662 OFFCURVE",
"344 511 CURVE SMOOTH"
);
}
);
width = 1166;
}
);
unicode = 00FE;
},
{
glyphname = q;
layers = (
{
layerId = "01C703B5-1257-45FB-9F79-4B1C4C3BA1BB";
paths = (
{
closed = 1;
nodes = (
"649 1000 OFFCURVE",
"748 915 OFFCURVE",
"816 836 CURVE",
"829 984 LINE",
"1002 984 LINE",
"1002 952 OFFCURVE",
"997 792 OFFCURVE",
"997 772 CURVE SMOOTH",
"997 -400 LINE",
"811 -400 LINE",
"811 -72 LINE SMOOTH",
"811 -12 OFFCURVE",
"814 74 OFFCURVE",
"817 111 CURVE",
"724 20 OFFCURVE",
"611 -17 OFFCURVE",
"518 -17 CURVE SMOOTH",
"283 -17 OFFCURVE",
"101 146 OFFCURVE",
"101 491 CURVE SMOOTH",
"101 840 OFFCURVE",
"280 1000 OFFCURVE",
"499 1000 CURVE SMOOTH"
);
},
{
closed = 1;
nodes = (
"815 609 OFFCURVE",
"798 859 OFFCURVE",
"539 859 CURVE SMOOTH",
"323 859 OFFCURVE",
"287 645 OFFCURVE",
"287 496 CURVE SMOOTH",
"287 329 OFFCURVE",
"332 122 OFFCURVE",
"552 122 CURVE SMOOTH",
"755 122 OFFCURVE",
"815 262 OFFCURVE",
"815 457 CURVE SMOOTH"
);
}
);
width = 1156;
}
);
unicode = 0071;
},
{
glyphname = r;
layers = (
{
layerId = "01C703B5-1257-45FB-9F79-4B1C4C3BA1BB";
paths = (
{
closed = 1;
nodes = (
"159 732 LINE SMOOTH",
"159 765 OFFCURVE",
"153 923 OFFCURVE",
"153 984 CURVE",
"328 984 LINE",
"337 814 LINE",
"424 949 OFFCURVE",
"549 1000 OFFCURVE",
"635 1000 CURVE SMOOTH",
"662 1000 OFFCURVE",
"695 998 OFFCURVE",
"723 994 CURVE",
"711 818 LINE",
"675 825 OFFCURVE",
"644 829 OFFCURVE",
"611 829 CURVE SMOOTH",
"424 829 OFFCURVE",
"348 703 OFFCURVE",
"348 524 CURVE SMOOTH",
"348 0 LINE",
"159 0 LINE"
);
}
);
width = 749;
}
);
unicode = 0072;
},
{
glyphname = s;
layers = (
{
layerId = "01C703B5-1257-45FB-9F79-4B1C4C3BA1BB";
paths = (
{
closed = 1;
nodes = (
"141 213 LINE",
"221 152 OFFCURVE",
"338 122 OFFCURVE",
"440 122 CURVE SMOOTH",
"549 122 OFFCURVE",
"643 167 OFFCURVE",
"643 266 CURVE SMOOTH",
"643 339 OFFCURVE",
"597 370 OFFCURVE",
"425 434 CURVE",
"235 501 OFFCURVE",
"108 552 OFFCURVE",
"108 727 CURVE SMOOTH",
"108 912 OFFCURVE",
"282 1000 OFFCURVE",
"472 1000 CURVE SMOOTH",
"593 1000 OFFCURVE",
"718 965 OFFCURVE",
"818 896 CURVE",
"757 773 LINE",
"670 829 OFFCURVE",
"559 859 OFFCURVE",
"476 859 CURVE SMOOTH",
"372 859 OFFCURVE",
"287 818 OFFCURVE",
"287 741 CURVE SMOOTH",
"287 669 OFFCURVE",
"361 625 OFFCURVE",
"494 581 CURVE",
"738 495 OFFCURVE",
"829 427 OFFCURVE",
"829 280 CURVE SMOOTH",
"829 72 OFFCURVE",
"630 -17 OFFCURVE",
"428 -17 CURVE SMOOTH",
"299 -17 OFFCURVE",
"190 14 OFFCURVE",
"82 82 CURVE"
);
}
);
width = 922;
}
);
unicode = 0073;
},
{
glyphname = germandbls;
layers = (
{
layerId = "01C703B5-1257-45FB-9F79-4B1C4C3BA1BB";
paths = (
{
closed = 1;
nodes = (
"997 1067 OFFCURVE",
"939 1003 OFFCURVE",
"874 949 CURVE SMOOTH",
"775 866 OFFCURVE",
"743 841 OFFCURVE",
"743 798 CURVE SMOOTH",
"743 757 OFFCURVE",
"770 730 OFFCURVE",
"845 681 CURVE SMOOTH",
"978 594 OFFCURVE",
"1137 497 OFFCURVE",
"1137 318 CURVE SMOOTH",
"1137 94 OFFCURVE",
"970 -17 OFFCURVE",
"760 -17 CURVE SMOOTH",
"623 -17 OFFCURVE",
"492 25 OFFCURVE",
"455 181 CURVE",
"561 262 LINE",
"600 182 OFFCURVE",
"675 134 OFFCURVE",
"764 134 CURVE SMOOTH",
"902 134 OFFCURVE",
"948 218 OFFCURVE",
"948 297 CURVE SMOOTH",
"948 413 OFFCURVE",
"856 461 OFFCURVE",
"733 538 CURVE SMOOTH",
"606 617 OFFCURVE",
"555 679 OFFCURVE",
"555 778 CURVE SMOOTH",
"555 888 OFFCURVE",
"626 947 OFFCURVE",
"705 1008 CURVE SMOOTH",
"762 1051 OFFCURVE",
"809 1086 OFFCURVE",
"809 1161 CURVE SMOOTH",
"809 1258 OFFCURVE",
"734 1321 OFFCURVE",
"585 1321 CURVE SMOOTH",
"433 1321 OFFCURVE",
"347 1260 OFFCURVE",
"347 1081 CURVE SMOOTH",
"347 0 LINE",
"159 0 LINE",
"159 1083 LINE SMOOTH",
"159 1293 OFFCURVE",
"253 1467 OFFCURVE",
"590 1467 CURVE SMOOTH",
"798 1467 OFFCURVE",
"997 1388 OFFCURVE",
"997 1170 CURVE SMOOTH"
);
}
);
width = 1200;
}
);
unicode = 00DF;
},
{
glyphname = t;
layers = (
{
layerId = "01C703B5-1257-45FB-9F79-4B1C4C3BA1BB";
paths = (
{
closed = 1;
nodes = (
"556 122 OFFCURVE",
"606 128 OFFCURVE",
"637 135 CURVE",
"637 2 LINE",
"596 -6 OFFCURVE",
"532 -17 OFFCURVE",
"472 -17 CURVE SMOOTH",
"308 -17 OFFCURVE",
"206 37 OFFCURVE",
"206 243 CURVE SMOOTH",
"206 841 LINE",
"49 841 LINE",
"49 984 LINE",
"211 984 LINE",
"244 1220 LINE",
"395 1250 LINE",
"395 984 LINE",
"633 984 LINE",
"633 841 LINE",
"395 841 LINE",
"395 263 LINE SMOOTH",
"395 188 OFFCURVE",
"413 122 OFFCURVE",
"519 122 CURVE SMOOTH"
);
}
);
width = 700;
}
);
unicode = 0074;
},
{
glyphname = u;
layers = (
{
layerId = "01C703B5-1257-45FB-9F79-4B1C4C3BA1BB";
paths = (
{
closed = 1;
nodes = (
"846 0 LINE",
"838 27 OFFCURVE",
"832 73 OFFCURVE",
"825 161 CURVE",
"774 46 OFFCURVE",
"659 -17 OFFCURVE",
"523 -17 CURVE SMOOTH",
"270 -17 OFFCURVE",
"148 112 OFFCURVE",
"148 352 CURVE SMOOTH",
"148 984 LINE",
"334 984 LINE",
"334 351 LINE SMOOTH",
"334 226 OFFCURVE",
"379 122 OFFCURVE",
"533 122 CURVE SMOOTH",
"744 122 OFFCURVE",
"800 263 OFFCURVE",
"800 447 CURVE SMOOTH",
"800 984 LINE",
"986 984 LINE",
"986 360 LINE SMOOTH",
"986 168 OFFCURVE",
"995 72 OFFCURVE",
"1003 0 CURVE"
);
}
);
width = 1147;
}
);
unicode = 0075;
},
{
glyphname = v;
layers = (
{
layerId = "01C703B5-1257-45FB-9F79-4B1C4C3BA1BB";
paths = (
{
closed = 1;
nodes = (
"405 0 LINE",
"17 984 LINE",
"220 984 LINE",
"393 519 LINE",
"516 173 LINE",
"638 518 LINE",
"809 984 LINE",
"1014 984 LINE",
"612 0 LINE"
);
}
);
width = 1028;
}
);
unicode = 0076;
},
{
glyphname = w;
layers = (
{
layerId = "01C703B5-1257-45FB-9F79-4B1C4C3BA1BB";
paths = (
{
closed = 1;
nodes = (
"866 984 LINE",
"1002 495 LINE",
"1093 155 LINE",
"1108 155 LINE",
"1187 547 LINE",
"1288 984 LINE",
"1478 984 LINE",
"1219 0 LINE",
"986 0 LINE",
"847 491 LINE",
"759 831 LINE",
"671 491 LINE",
"532 0 LINE",
"299 0 LINE",
"39 984 LINE",
"233 984 LINE",
"414 155 LINE",
"428 155 LINE",
"516 495 LINE",
"652 984 LINE"
);
}
);
width = 1517;
}
);
unicode = 0077;
},
{
glyphname = x;
layers = (
{
layerId = "01C703B5-1257-45FB-9F79-4B1C4C3BA1BB";
paths = (
{
closed = 1;
nodes = (
"408 507 LINE",
"55 984 LINE",
"284 984 LINE",
"533 620 LINE",
"785 984 LINE",
"1003 984 LINE",
"641 502 LINE",
"1010 0 LINE",
"781 0 LINE",
"516 381 LINE",
"250 0 LINE",
"36 0 LINE"
);
}
);
width = 1051;
}
);
unicode = 0078;
},
{
glyphname = y;
layers = (
{
layerId = "01C703B5-1257-45FB-9F79-4B1C4C3BA1BB";
paths = (
{
closed = 1;
nodes = (
"573 -84 LINE",
"525 -205 OFFCURVE",
"449 -367 OFFCURVE",
"299 -367 CURVE SMOOTH",
"272 -367 OFFCURVE",
"243 -362 OFFCURVE",
"202 -351 CURVE",
"202 -218 LINE",
"233 -229 OFFCURVE",
"253 -232 OFFCURVE",
"268 -232 CURVE SMOOTH",
"344 -232 OFFCURVE",
"378 -130 OFFCURVE",
"408 -29 CURVE SMOOTH",
"418 5 LINE",
"14 984 LINE",
"220 984 LINE",
"396 519 LINE",
"516 188 LINE",
"809 984 LINE",
"1011 984 LINE"
);
}
);
width = 1025;
}
);
unicode = 0079;
},
{
glyphname = z;
layers = (
{
layerId = "01C703B5-1257-45FB-9F79-4B1C4C3BA1BB";
paths = (
{
closed = 1;
nodes = (
"791 0 LINE",
"85 0 LINE",
"85 159 LINE",
"574 840 LINE",
"114 840 LINE",
"114 984 LINE",
"784 984 LINE",
"784 836 LINE",
"286 144 LINE",
"791 144 LINE"
);
}
);
width = 885;
}
);
unicode = 007A;
},
{
glyphname = g.alt;
layers = (
{
layerId = "01C703B5-1257-45FB-9F79-4B1C4C3BA1BB";
paths = (
{
closed = 1;
nodes = (
"815 609 OFFCURVE",
"798 859 OFFCURVE",
"539 859 CURVE SMOOTH",
"323 859 OFFCURVE",
"287 645 OFFCURVE",
"287 496 CURVE SMOOTH",
"287 329 OFFCURVE",
"332 141 OFFCURVE",
"552 141 CURVE SMOOTH",
"755 141 OFFCURVE",
"815 262 OFFCURVE",
"815 457 CURVE SMOOTH"
);
},
{
closed = 1;
nodes = (
"287 -160 LINE",
"360 -191 OFFCURVE",
"453 -212 OFFCURVE",
"542 -212 CURVE",
"686 -209 OFFCURVE",
"815 -163 OFFCURVE",
"815 22 CURVE SMOOTH",
"815 129 LINE",
"722 38 OFFCURVE",
"611 0 OFFCURVE",
"518 0 CURVE SMOOTH",
"283 0 OFFCURVE",
"101 148 OFFCURVE",
"101 491 CURVE SMOOTH",
"101 840 OFFCURVE",
"280 1000 OFFCURVE",
"499 1000 CURVE SMOOTH",
"649 1000 OFFCURVE",
"748 915 OFFCURVE",
"816 836 CURVE",
"829 984 LINE",
"1002 984 LINE",
"1002 948 OFFCURVE",
"997 790 OFFCURVE",
"997 772 CURVE SMOOTH",
"997 29 LINE SMOOTH",
"997 -238 OFFCURVE",
"772 -353 OFFCURVE",
"543 -353 CURVE SMOOTH",
"454 -353 OFFCURVE",
"364 -336 OFFCURVE",
"287 -303 CURVE"
);
}
);
width = 1166;
}
);
},
{
glyphname = fi;
layers = (
{
layerId = "01C703B5-1257-45FB-9F79-4B1C4C3BA1BB";
paths = (
{
closed = 1;
nodes = (
"1046 0 LINE",
"860 0 LINE",
"860 866 LINE",
"420 866 LINE",
"420 0 LINE",
"231 0 LINE",
"231 866 LINE",
"43 866 LINE",
"43 997 LINE",
"232 1014 LINE",
"232 1062 LINE SMOOTH",
"232 1198 OFFCURVE",
"248 1265 OFFCURVE",
"293 1319 CURVE SMOOTH",
"342 1378 OFFCURVE",
"419 1412 OFFCURVE",
"535 1412 CURVE SMOOTH",
"591 1412 OFFCURVE",
"653 1401 OFFCURVE",
"709 1386 CURVE",
"701 1330 OFFCURVE",
"693 1287 OFFCURVE",
"685 1234 CURVE",
"644 1242 OFFCURVE",
"600 1249 OFFCURVE",
"561 1249 CURVE SMOOTH",
"439 1249 OFFCURVE",
"420 1194 OFFCURVE",
"420 1086 CURVE SMOOTH",
"420 1015 LINE",
"1046 1015 LINE"
);
},
{
closed = 1;
nodes = (
"1064 1377 LINE",
"1064 1205 LINE",
"842 1205 LINE",
"842 1377 LINE"
);
}
);
width = 1205;
}
);
unicode = FB01;
},
{
glyphname = fl;
layers = (
{
layerId = "01C703B5-1257-45FB-9F79-4B1C4C3BA1BB";
paths = (
{
closed = 1;
nodes = (
"836 1261 LINE",
"561 1261 LINE SMOOTH",
"439 1261 OFFCURVE",
"420 1194 OFFCURVE",
"420 1086 CURVE SMOOTH",
"420 1015 LINE",
"649 1015 LINE",
"649 866 LINE",
"420 866 LINE",
"420 0 LINE",
"231 0 LINE",
"231 866 LINE",
"43 866 LINE",
"43 997 LINE",
"232 1014 LINE",
"232 1062 LINE SMOOTH",
"232 1198 OFFCURVE",
"248 1265 OFFCURVE",
"293 1319 CURVE SMOOTH",
"342 1379 OFFCURVE",
"419 1412 OFFCURVE",
"535 1412 CURVE SMOOTH",
"1025 1412 LINE",
"1025 0 LINE",
"836 0 LINE"
);
}
);
width = 1194;
}
);
unicode = FB02;
},
{
glyphname = ordfeminine;
layers = (
{
layerId = "01C703B5-1257-45FB-9F79-4B1C4C3BA1BB";
paths = (
{
closed = 1;
nodes = (
"202 791 OFFCURVE",
"108 858 OFFCURVE",
"108 982 CURVE SMOOTH",
"108 1136 OFFCURVE",
"245 1197 OFFCURVE",
"410 1197 CURVE SMOOTH",
"499 1197 LINE",
"499 1234 LINE",
"496 1310 OFFCURVE",
"449 1340 OFFCURVE",
"391 1340 CURVE SMOOTH",
"331 1340 OFFCURVE",
"265 1319 OFFCURVE",
"216 1287 CURVE",
"168 1366 LINE",
"228 1415 OFFCURVE",
"323 1442 OFFCURVE",
"411 1442 CURVE SMOOTH",
"525 1442 OFFCURVE",
"624 1373 OFFCURVE",
"624 1214 CURVE SMOOTH",
"624 975 LINE SMOOTH",
"624 928 OFFCURVE",
"624 887 OFFCURVE",
"626 856 CURVE SMOOTH",
"629 809 LINE",
"519 809 LINE",
"516 828 OFFCURVE",
"510 851 OFFCURVE",
"505 880 CURVE",
"462 835 OFFCURVE",
"405 791 OFFCURVE",
"317 791 CURVE SMOOTH"
);
},
{
closed = 1;
nodes = (
"479 900 OFFCURVE",
"499 1009 OFFCURVE",
"499 1100 CURVE",
"481 1100 OFFCURVE",
"443 1101 OFFCURVE",
"431 1101 CURVE SMOOTH",
"324 1101 OFFCURVE",
"239 1072 OFFCURVE",
"239 989 CURVE SMOOTH",
"239 944 OFFCURVE",
"267 900 OFFCURVE",
"345 900 CURVE SMOOTH"
);
}
);
width = 770;
}
);
unicode = 00AA;
},
{
glyphname = ordmasculine;
layers = (
{
layerId = "01C703B5-1257-45FB-9F79-4B1C4C3BA1BB";
paths = (
{
closed = 1;
nodes = (
"681 920 OFFCURVE",
"565 789 OFFCURVE",
"376 789 CURVE SMOOTH",
"177 789 OFFCURVE",
"73 930 OFFCURVE",
"73 1115 CURVE SMOOTH",
"73 1302 OFFCURVE",
"174 1442 OFFCURVE",
"379 1442 CURVE SMOOTH",
"598 1442 OFFCURVE",
"681 1280 OFFCURVE",
"681 1118 CURVE SMOOTH"
);
},
{
closed = 1;
nodes = (
"208 1000 OFFCURVE",
"249 897 OFFCURVE",
"376 897 CURVE SMOOTH",
"471 897 OFFCURVE",
"544 965 OFFCURVE",
"544 1120 CURVE SMOOTH",
"544 1240 OFFCURVE",
"507 1337 OFFCURVE",
"379 1337 CURVE SMOOTH",
"256 1337 OFFCURVE",
"208 1244 OFFCURVE",
"208 1119 CURVE SMOOTH"
);
}
);
width = 753;
}
);
unicode = 00BA;
},
{
glyphname = uni03A9;
layers = (
{
layerId = "01C703B5-1257-45FB-9F79-4B1C4C3BA1BB";
paths = (
{
closed = 1;
nodes = (
"112 153 LINE",
"390 153 LINE",
"257 284 OFFCURVE",
"139 476 OFFCURVE",
"139 736 CURVE SMOOTH",
"139 1113 OFFCURVE",
"390 1386 OFFCURVE",
"730 1386 CURVE SMOOTH",
"1089 1386 OFFCURVE",
"1308 1075 OFFCURVE",
"1308 747 CURVE SMOOTH",
"1308 478 OFFCURVE",
"1184 273 OFFCURVE",
"1051 153 CURVE",
"1334 153 LINE",
"1334 0 LINE",
"845 0 LINE",
"845 112 LINE",
"989 211 OFFCURVE",
"1127 416 OFFCURVE",
"1127 715 CURVE SMOOTH",
"1127 961 OFFCURVE",
"989 1232 OFFCURVE",
"728 1232 CURVE SMOOTH",
"480 1232 OFFCURVE",
"321 1002 OFFCURVE",
"321 708 CURVE SMOOTH",
"321 429 OFFCURVE",
"459 208 OFFCURVE",
"601 112 CURVE",
"601 0 LINE",
"112 0 LINE"
);
}
);
width = 1447;
}
);
unicode = 03A9;
},
{
glyphname = pi;
layers = (
{
layerId = "01C703B5-1257-45FB-9F79-4B1C4C3BA1BB";
paths = (
{
closed = 1;
nodes = (
"962 861 LINE",
"962 292 LINE SMOOTH",
"962 155 OFFCURVE",
"976 60 OFFCURVE",
"989 0 CURVE",
"821 0 LINE",
"800 43 OFFCURVE",
"785 132 OFFCURVE",
"785 281 CURVE SMOOTH",
"785 861 LINE",
"461 861 LINE",
"449 614 OFFCURVE",
"393 195 OFFCURVE",
"321 0 CURVE",
"146 0 LINE",
"218 221 OFFCURVE",
"274 614 OFFCURVE",
"286 861 CURVE",
"182 858 OFFCURVE",
"123 850 OFFCURVE",
"76 837 CURVE",
"49 960 LINE",
"108 992 OFFCURVE",
"196 1018 OFFCURVE",
"343 1018 CURVE SMOOTH",
"1129 1018 LINE",
"1112 861 LINE"
);
}
);
width = 1179;
}
);
unicode = 03C0;
},
{
glyphname = zero;
layers = (
{
layerId = "01C703B5-1257-45FB-9F79-4B1C4C3BA1BB";
paths = (
{
closed = 1;
nodes = (
"131 1029 OFFCURVE",
"199 1442 OFFCURVE",
"582 1442 CURVE SMOOTH",
"942 1442 OFFCURVE",
"1034 1060 OFFCURVE",
"1034 708 CURVE SMOOTH",
"1034 356 OFFCURVE",
"942 -26 OFFCURVE",
"582 -26 CURVE SMOOTH",
"199 -26 OFFCURVE",
"131 387 OFFCURVE",
"131 708 CURVE SMOOTH"
);
},
{
closed = 1;
nodes = (
"842 1057 OFFCURVE",
"779 1268 OFFCURVE",
"583 1268 CURVE SMOOTH",
"370 1268 OFFCURVE",
"321 1014 OFFCURVE",
"321 708 CURVE SMOOTH",
"321 407 OFFCURVE",
"370 149 OFFCURVE",
"583 149 CURVE SMOOTH",
"779 149 OFFCURVE",
"842 365 OFFCURVE",
"842 708 CURVE SMOOTH"
);
}
);
width = 1164;
}
);
unicode = 0030;
},
{
glyphname = one;
layers = (
{
layerId = "01C703B5-1257-45FB-9F79-4B1C4C3BA1BB";
paths = (
{
closed = 1;
nodes = (
"368 967 LINE",
"369 991 OFFCURVE",
"369 1050 OFFCURVE",
"370 1100 CURVE SMOOTH",
"372 1196 LINE",
"264 1100 OFFCURVE",
"159 1034 OFFCURVE",
"87 993 CURVE",
"42 1165 LINE",
"124 1210 OFFCURVE",
"332 1369 OFFCURVE",
"391 1412 CURVE",
"556 1412 LINE",
"556 0 LINE",
"368 0 LINE"
);
}
);
width = 757;
}
);
unicode = 0031;
},
{
glyphname = two;
layers = (
{
layerId = "01C703B5-1257-45FB-9F79-4B1C4C3BA1BB";
paths = (
{
closed = 1;
nodes = (
"114 1144 LINE",
"201 1349 OFFCURVE",
"333 1442 OFFCURVE",
"548 1442 CURVE SMOOTH",
"761 1442 OFFCURVE",
"938 1323 OFFCURVE",
"938 1062 CURVE SMOOTH",
"938 900 OFFCURVE",
"841 746 OFFCURVE",
"560 454 CURVE",
"321 170 LINE",
"968 170 LINE",
"968 0 LINE",
"99 0 LINE",
"99 174 LINE",
"443 572 LINE",
"604 738 OFFCURVE",
"746 908 OFFCURVE",
"746 1049 CURVE SMOOTH",
"746 1148 OFFCURVE",
"692 1268 OFFCURVE",
"532 1268 CURVE SMOOTH",
"367 1268 OFFCURVE",
"310 1157 OFFCURVE",
"278 1077 CURVE"
);
}
);
width = 1077;
}
);
unicode = 0032;
},
{
glyphname = three;
layers = (
{
layerId = "01C703B5-1257-45FB-9F79-4B1C4C3BA1BB";
paths = (
{
closed = 1;
nodes = (
"375 -20 OFFCURVE",
"226 31 OFFCURVE",
"101 148 CURVE",
"169 308 LINE",
"266 206 OFFCURVE",
"403 152 OFFCURVE",
"519 152 CURVE SMOOTH",
"665 152 OFFCURVE",
"793 227 OFFCURVE",
"793 394 CURVE SMOOTH",
"793 611 OFFCURVE",
"599 650 OFFCURVE",
"418 650 CURVE SMOOTH",
"395 650 OFFCURVE",
"377 649 OFFCURVE",
"364 649 CURVE SMOOTH",
"343 649 LINE",
"343 814 LINE",
"352 812 OFFCURVE",
"363 812 OFFCURVE",
"376 812 CURVE SMOOTH",
"567 812 OFFCURVE",
"762 845 OFFCURVE",
"762 1063 CURVE SMOOTH",
"762 1183 OFFCURVE",
"662 1268 OFFCURVE",
"514 1268 CURVE SMOOTH",
"426 1268 OFFCURVE",
"316 1227 OFFCURVE",
"191 1127 CURVE",
"95 1257 LINE",
"228 1382 OFFCURVE",
"384 1442 OFFCURVE",
"525 1442 CURVE SMOOTH",
"759 1442 OFFCURVE",
"959 1307 OFFCURVE",
"959 1072 CURVE SMOOTH",
"959 936 OFFCURVE",
"879 805 OFFCURVE",
"716 736 CURVE",
"938 666 OFFCURVE",
"990 483 OFFCURVE",
"990 389 CURVE SMOOTH",
"990 130 OFFCURVE",
"763 -20 OFFCURVE",
"516 -20 CURVE SMOOTH"
);
}
);
width = 1115;
}
);
unicode = 0033;
},
{
glyphname = four;
layers = (
{
layerId = "01C703B5-1257-45FB-9F79-4B1C4C3BA1BB";
paths = (
{
closed = 1;
nodes = (
"689 0 LINE",
"689 300 LINE",
"66 300 LINE",
"66 504 LINE",
"673 1412 LINE",
"875 1412 LINE",
"875 472 LINE",
"1074 472 LINE",
"1074 300 LINE",
"875 300 LINE",
"875 0 LINE"
);
},
{
closed = 1;
nodes = (
"240 472 LINE",
"689 472 LINE",
"689 1180 LINE",
"625 1078 LINE"
);
}
);
width = 1149;
}
);
unicode = 0034;
},
{
glyphname = five;
layers = (
{
layerId = "01C703B5-1257-45FB-9F79-4B1C4C3BA1BB";
paths = (
{
closed = 1;
nodes = (
"819 882 OFFCURVE",
"981 700 OFFCURVE",
"981 448 CURVE SMOOTH",
"981 163 OFFCURVE",
"797 -26 OFFCURVE",
"488 -26 CURVE SMOOTH",
"311 -26 OFFCURVE",
"160 54 OFFCURVE",
"110 208 CURVE",
"228 303 LINE",
"276 194 OFFCURVE",
"402 149 OFFCURVE",
"494 149 CURVE SMOOTH",
"716 149 OFFCURVE",
"788 299 OFFCURVE",
"788 444 CURVE SMOOTH",
"788 623 OFFCURVE",
"687 720 OFFCURVE",
"506 720 CURVE SMOOTH",
"392 720 OFFCURVE",
"311 652 OFFCURVE",
"274 610 CURVE",
"157 638 LINE",
"157 1412 LINE",
"897 1412 LINE",
"897 1240 LINE",
"346 1240 LINE",
"316 811 LINE",
"372 846 OFFCURVE",
"451 882 OFFCURVE",
"555 882 CURVE SMOOTH"
);
}
);
width = 1087;
}
);
unicode = 0035;
},
{
glyphname = six;
layers = (
{
layerId = "01C703B5-1257-45FB-9F79-4B1C4C3BA1BB";
paths = (
{
closed = 1;
nodes = (
"927 1207 LINE",
"831 1246 OFFCURVE",
"749 1268 OFFCURVE",
"677 1268 CURVE SMOOTH",
"424 1268 OFFCURVE",
"344 1062 OFFCURVE",
"323 723 CURVE",
"379 811 OFFCURVE",
"484 883 OFFCURVE",
"625 883 CURVE SMOOTH",
"856 883 OFFCURVE",
"1031 732 OFFCURVE",
"1031 449 CURVE SMOOTH",
"1031 145 OFFCURVE",
"831 -26 OFFCURVE",
"587 -26 CURVE SMOOTH",
"263 -26 OFFCURVE",
"128 252 OFFCURVE",
"128 609 CURVE SMOOTH",
"128 972 OFFCURVE",
"232 1442 OFFCURVE",
"666 1442 CURVE SMOOTH",
"758 1442 OFFCURVE",
"866 1417 OFFCURVE",
"987 1361 CURVE"
);
},
{
closed = 1;
nodes = (
"721 149 OFFCURVE",
"842 234 OFFCURVE",
"842 440 CURVE SMOOTH",
"842 568 OFFCURVE",
"791 726 OFFCURVE",
"597 726 CURVE SMOOTH",
"425 726 OFFCURVE",
"328 589 OFFCURVE",
"328 453 CURVE SMOOTH",
"328 290 OFFCURVE",
"426 149 OFFCURVE",
"590 149 CURVE SMOOTH"
);
}
);
width = 1141;
}
);
unicode = 0036;
},
{
glyphname = seven;
layers = (
{
layerId = "01C703B5-1257-45FB-9F79-4B1C4C3BA1BB";
paths = (
{
closed = 1;
nodes = (
"180 0 LINE",
"704 1240 LINE",
"60 1240 LINE",
"60 1412 LINE",
"904 1412 LINE",
"904 1253 LINE",
"395 0 LINE"
);
}
);
width = 959;
}
);
unicode = 0037;
},
{
glyphname = eight;
layers = (
{
layerId = "01C703B5-1257-45FB-9F79-4B1C4C3BA1BB";
paths = (
{
closed = 1;
nodes = (
"338 -26 OFFCURVE",
"125 95 OFFCURVE",
"125 358 CURVE SMOOTH",
"125 542 OFFCURVE",
"232 664 OFFCURVE",
"394 744 CURVE",
"245 817 OFFCURVE",
"159 934 OFFCURVE",
"159 1083 CURVE SMOOTH",
"159 1251 OFFCURVE",
"289 1442 OFFCURVE",
"580 1442 CURVE SMOOTH",
"832 1442 OFFCURVE",
"1005 1305 OFFCURVE",
"1005 1086 CURVE SMOOTH",
"1005 937 OFFCURVE",
"918 816 OFFCURVE",
"757 748 CURVE",
"880 684 OFFCURVE",
"1037 582 OFFCURVE",
"1037 366 CURVE SMOOTH",
"1037 158 OFFCURVE",
"885 -26 OFFCURVE",
"581 -26 CURVE SMOOTH"
);
},
{
closed = 1;
nodes = (
"773 149 OFFCURVE",
"843 260 OFFCURVE",
"843 372 CURVE SMOOTH",
"843 523 OFFCURVE",
"727 628 OFFCURVE",
"572 663 CURVE",
"419 623 OFFCURVE",
"318 510 OFFCURVE",
"318 366 CURVE SMOOTH",
"318 255 OFFCURVE",
"392 149 OFFCURVE",
"580 149 CURVE SMOOTH"
);
},
{
closed = 1;
nodes = (
"349 937 OFFCURVE",
"451 857 OFFCURVE",
"581 833 CURVE",
"712 857 OFFCURVE",
"817 946 OFFCURVE",
"817 1082 CURVE SMOOTH",
"817 1196 OFFCURVE",
"729 1273 OFFCURVE",
"582 1273 CURVE SMOOTH",
"447 1273 OFFCURVE",
"349 1202 OFFCURVE",
"349 1082 CURVE SMOOTH"
);
}
);
width = 1163;
}
);
unicode = 0038;
},
{
glyphname = nine;
layers = (
{
layerId = "01C703B5-1257-45FB-9F79-4B1C4C3BA1BB";
paths = (
{
closed = 1;
nodes = (
"231 214 LINE",
"330 171 OFFCURVE",
"413 149 OFFCURVE",
"480 149 CURVE SMOOTH",
"668 149 OFFCURVE",
"795 319 OFFCURVE",
"808 701 CURVE",
"744 592 OFFCURVE",
"621 548 OFFCURVE",
"513 548 CURVE SMOOTH",
"282 548 OFFCURVE",
"105 699 OFFCURVE",
"105 985 CURVE SMOOTH",
"105 1288 OFFCURVE",
"302 1442 OFFCURVE",
"534 1442 CURVE SMOOTH",
"766 1442 OFFCURVE",
"1004 1300 OFFCURVE",
"1004 768 CURVE SMOOTH",
"1004 252 OFFCURVE",
"794 -26 OFFCURVE",
"491 -26 CURVE SMOOTH",
"395 -26 OFFCURVE",
"288 4 OFFCURVE",
"167 55 CURVE"
);
},
{
closed = 1;
nodes = (
"698 701 OFFCURVE",
"798 826 OFFCURVE",
"798 970 CURVE SMOOTH",
"798 1143 OFFCURVE",
"694 1268 OFFCURVE",
"542 1268 CURVE SMOOTH",
"391 1268 OFFCURVE",
"295 1162 OFFCURVE",
"295 984 CURVE SMOOTH",
"295 809 OFFCURVE",
"388 701 OFFCURVE",
"541 701 CURVE SMOOTH"
);
}
);
width = 1133;
}
);
unicode = 0039;
},
{
glyphname = fraction;
layers = (
{
layerId = "01C703B5-1257-45FB-9F79-4B1C4C3BA1BB";
paths = (
{
closed = 1;
nodes = (
"933 1400 LINE",
"121 -30 LINE",
"-28 -30 LINE",
"785 1400 LINE"
);
}
);
width = 910;
}
);
unicode = 2044;
},
{
glyphname = onesuperior;
layers = (
{
layerId = "01C703B5-1257-45FB-9F79-4B1C4C3BA1BB";
paths = (
{
closed = 1;
nodes = (
"302 849 LINE",
"303 869 OFFCURVE",
"303 954 OFFCURVE",
"304 1037 CURVE SMOOTH",
"306 1196 LINE",
"238 1139 OFFCURVE",
"162 1091 OFFCURVE",
"81 1044 CURVE",
"44 1182 LINE",
"112 1218 OFFCURVE",
"281 1345 OFFCURVE",
"321 1377 CURVE",
"452 1377 LINE",
"452 285 LINE",
"302 285 LINE"
);
}
);
width = 632;
}
);
unicode = 00B9;
},
{
glyphname = twosuperior;
layers = (
{
layerId = "01C703B5-1257-45FB-9F79-4B1C4C3BA1BB";
paths = (
{
closed = 1;
nodes = (
"123 1159 LINE",
"201 1333 OFFCURVE",
"293 1399 OFFCURVE",
"454 1399 CURVE SMOOTH",
"634 1399 OFFCURVE",
"782 1301 OFFCURVE",
"782 1089 CURVE SMOOTH",
"782 965 OFFCURVE",
"708 836 OFFCURVE",
"487 612 CURVE SMOOTH",
"300 422 LINE",
"804 422 LINE",
"804 285 LINE",
"112 285 LINE",
"112 425 LINE",
"386 708 LINE SMOOTH",
"523 850 OFFCURVE",
"627 976 OFFCURVE",
"627 1093 CURVE SMOOTH",
"627 1172 OFFCURVE",
"586 1263 OFFCURVE",
"457 1263 CURVE SMOOTH",
"328 1263 OFFCURVE",
"286 1175 OFFCURVE",
"257 1109 CURVE"
);
}
);
width = 925;
}
);
unicode = 00B2;
},
{
glyphname = threesuperior;
layers = (
{
layerId = "01C703B5-1257-45FB-9F79-4B1C4C3BA1BB";
paths = (
{
closed = 1;
nodes = (
"203 546 LINE",
"263 461 OFFCURVE",
"356 418 OFFCURVE",
"448 418 CURVE SMOOTH",
"556 418 OFFCURVE",
"652 482 OFFCURVE",
"652 610 CURVE SMOOTH",
"652 754 OFFCURVE",
"524 795 OFFCURVE",
"396 795 CURVE SMOOTH",
"318 795 LINE",
"318 926 LINE",
"329 925 OFFCURVE",
"342 924 OFFCURVE",
"354 924 CURVE SMOOTH",
"493 924 OFFCURVE",
"628 960 OFFCURVE",
"628 1111 CURVE SMOOTH",
"628 1218 OFFCURVE",
"544 1268 OFFCURVE",
"451 1268 CURVE SMOOTH",
"363 1268 OFFCURVE",
"270 1223 OFFCURVE",
"230 1136 CURVE",
"110 1181 LINE",
"174 1328 OFFCURVE",
"323 1399 OFFCURVE",
"464 1399 CURVE SMOOTH",
"628 1399 OFFCURVE",
"784 1303 OFFCURVE",
"784 1117 CURVE SMOOTH",
"784 1017 OFFCURVE",
"716 923 OFFCURVE",
"600 863 CURVE",
"770 807 OFFCURVE",
"807 676 OFFCURVE",
"807 607 CURVE SMOOTH",
"807 416 OFFCURVE",
"636 292 OFFCURVE",
"447 292 CURVE SMOOTH",
"319 292 OFFCURVE",
"182 349 OFFCURVE",
"86 482 CURVE"
);
}
);
width = 933;
}
);
unicode = 00B3;
},
{
glyphname = foursuperior;
layers = (
{
layerId = "01C703B5-1257-45FB-9F79-4B1C4C3BA1BB";
paths = (
{
closed = 1;
nodes = (
"557 285 LINE",
"557 523 LINE",
"64 523 LINE",
"64 685 LINE",
"546 1390 LINE",
"707 1390 LINE",
"707 662 LINE",
"864 662 LINE",
"864 523 LINE",
"707 523 LINE",
"707 285 LINE"
);
},
{
closed = 1;
nodes = (
"206 662 LINE",
"557 662 LINE",
"557 1217 LINE",
"437 1012 LINE"
);
}
);
width = 944;
}
);
unicode = 2074;
},
{
glyphname = period;
layers = (
{
layerId = "01C703B5-1257-45FB-9F79-4B1C4C3BA1BB";
paths = (
{
closed = 1;
nodes = (
"143 239 LINE",
"374 239 LINE",
"374 0 LINE",
"143 0 LINE"
);
}
);
width = 518;
}
);
unicode = 002E;
},
{
glyphname = comma;
layers = (
{
layerId = "01C703B5-1257-45FB-9F79-4B1C4C3BA1BB";
paths = (
{
closed = 1;
nodes = (
"57 -248 LINE",
"169 244 LINE",
"391 244 LINE",
"197 -248 LINE"
);
}
);
width = 519;
}
);
unicode = 002C;
},
{
glyphname = colon;
layers = (
{
layerId = "01C703B5-1257-45FB-9F79-4B1C4C3BA1BB";
paths = (
{
closed = 1;
nodes = (
"143 1024 LINE",
"374 1024 LINE",
"374 785 LINE",
"143 785 LINE"
);
},
{
closed = 1;
nodes = (
"143 239 LINE",
"374 239 LINE",
"374 0 LINE",
"143 0 LINE"
);
}
);
width = 518;
}
);
unicode = 003A;
},
{
glyphname = semicolon;
layers = (
{
layerId = "01C703B5-1257-45FB-9F79-4B1C4C3BA1BB";
paths = (
{
closed = 1;
nodes = (
"97 -233 LINE",
"207 229 LINE",
"403 229 LINE",
"220 -233 LINE"
);
},
{
closed = 1;
nodes = (
"191 1024 LINE",
"422 1024 LINE",
"422 785 LINE",
"191 785 LINE"
);
}
);
width = 579;
}
);
unicode = 003B;
},
{
glyphname = ellipsis;
layers = (
{
layerId = "01C703B5-1257-45FB-9F79-4B1C4C3BA1BB";
paths = (
{
closed = 1;
nodes = (
"144 248 LINE",
"369 248 LINE",
"369 0 LINE",
"144 0 LINE"
);
},
{
closed = 1;
nodes = (
"762 248 LINE",
"989 248 LINE",
"989 0 LINE",
"762 0 LINE"
);
},
{
closed = 1;
nodes = (
"1382 248 LINE",
"1608 248 LINE",
"1608 0 LINE",
"1382 0 LINE"
);
}
);
width = 1752;
}
);
unicode = 2026;
},
{
glyphname = exclam;
layers = (
{
layerId = "01C703B5-1257-45FB-9F79-4B1C4C3BA1BB";
paths = (
{
closed = 1;
nodes = (
"321 339 LINE",
"209 339 LINE",
"209 1394 LINE",
"369 1394 LINE"
);
},
{
closed = 1;
nodes = (
"161 211 LINE",
"369 211 LINE",
"369 0 LINE",
"161 0 LINE"
);
}
);
width = 530;
}
);
unicode = 0021;
},
{
glyphname = exclamdown;
layers = (
{
layerId = "01C703B5-1257-45FB-9F79-4B1C4C3BA1BB";
paths = (
{
closed = 1;
nodes = (
"370 0 LINE",
"162 0 LINE",
"162 1055 LINE",
"322 1055 LINE"
);
},
{
closed = 1;
nodes = (
"162 1394 LINE",
"370 1394 LINE",
"370 1183 LINE",
"162 1183 LINE"
);
}
);
width = 531;
}
);
unicode = 00A1;
},
{
glyphname = question;
layers = (
{
layerId = "01C703B5-1257-45FB-9F79-4B1C4C3BA1BB";
paths = (
{
closed = 1;
nodes = (
"283 363 LINE",
"283 442 LINE SMOOTH",
"283 575 OFFCURVE",
"300 648 OFFCURVE",
"412 760 CURVE SMOOTH",
"528 876 OFFCURVE",
"608 961 OFFCURVE",
"608 1073 CURVE SMOOTH",
"608 1230 OFFCURVE",
"460 1268 OFFCURVE",
"372 1268 CURVE SMOOTH",
"312 1268 OFFCURVE",
"219 1253 OFFCURVE",
"95 1198 CURVE",
"65 1373 LINE",
"145 1408 OFFCURVE",
"249 1442 OFFCURVE",
"378 1442 CURVE SMOOTH",
"640 1442 OFFCURVE",
"803 1310 OFFCURVE",
"803 1086 CURVE SMOOTH",
"803 920 OFFCURVE",
"731 840 OFFCURVE",
"580 700 CURVE SMOOTH",
"465 593 OFFCURVE",
"442 566 OFFCURVE",
"442 433 CURVE SMOOTH",
"442 363 LINE"
);
},
{
closed = 1;
nodes = (
"256 211 LINE",
"469 211 LINE",
"469 0 LINE",
"256 0 LINE"
);
}
);
width = 882;
}
);
unicode = 003F;
},
{
glyphname = middot;
layers = (
{
layerId = "01C703B5-1257-45FB-9F79-4B1C4C3BA1BB";
paths = (
{
closed = 1;
nodes = (
"143 697 LINE",
"367 697 LINE",
"367 448 LINE",
"143 448 LINE"
);
}
);
width = 510;
}
);
unicode = 00B7;
},
{
glyphname = bullet;
layers = (
{
layerId = "01C703B5-1257-45FB-9F79-4B1C4C3BA1BB";
paths = (
{
closed = 1;
nodes = (
"106 906 OFFCURVE",
"239 1024 OFFCURVE",
"403 1024 CURVE SMOOTH",
"567 1024 OFFCURVE",
"701 905 OFFCURVE",
"701 713 CURVE SMOOTH",
"701 525 OFFCURVE",
"569 403 OFFCURVE",
"403 403 CURVE SMOOTH",
"238 403 OFFCURVE",
"106 525 OFFCURVE",
"106 713 CURVE SMOOTH"
);
}
);
width = 807;
}
);
unicode = 2022;
},
{
glyphname = asterisk;
layers = (
{
layerId = "01C703B5-1257-45FB-9F79-4B1C4C3BA1BB";
paths = (
{
closed = 1;
nodes = (
"211 1334 LINE",
"336 1411 LINE",
"473 1183 LINE",
"610 1411 LINE",
"737 1334 LINE",
"604 1118 LINE",
"839 1118 LINE",
"839 969 LINE",
"603 969 LINE",
"736 754 LINE",
"610 677 LINE",
"473 904 LINE",
"336 677 LINE",
"210 754 LINE",
"340 969 LINE",
"109 969 LINE",
"109 1118 LINE",
"341 1118 LINE"
);
}
);
width = 948;
}
);
unicode = 002A;
},
{
glyphname = numbersign;
layers = (
{
layerId = "01C703B5-1257-45FB-9F79-4B1C4C3BA1BB";
paths = (
{
closed = 1;
nodes = (
"943 824 LINE",
"888 539 LINE",
"1113 539 LINE",
"1113 393 LINE",
"861 393 LINE",
"787 0 LINE",
"627 0 LINE",
"701 393 LINE",
"459 393 LINE",
"384 0 LINE",
"226 0 LINE",
"300 393 LINE",
"85 393 LINE",
"85 539 LINE",
"327 539 LINE",
"381 824 LINE",
"159 824 LINE",
"159 971 LINE",
"409 971 LINE",
"483 1377 LINE",
"644 1377 LINE",
"568 971 LINE",
"813 971 LINE",
"888 1377 LINE",
"1048 1377 LINE",
"969 971 LINE",
"1187 971 LINE",
"1187 824 LINE"
);
},
{
closed = 1;
nodes = (
"486 539 LINE",
"729 539 LINE",
"784 824 LINE",
"540 824 LINE"
);
}
);
width = 1274;
}
);
unicode = 0023;
},
{
glyphname = slash;
layers = (
{
layerId = "01C703B5-1257-45FB-9F79-4B1C4C3BA1BB";
paths = (
{
closed = 1;
nodes = (
"719 1442 LINE",
"234 -26 LINE",
"73 -26 LINE",
"562 1442 LINE"
);
}
);
width = 792;
}
);
unicode = 002F;
},
{
glyphname = backslash;
layers = (
{
layerId = "01C703B5-1257-45FB-9F79-4B1C4C3BA1BB";
paths = (
{
closed = 1;
nodes = (
"231 1412 LINE",
"392 933 OFFCURVE",
"554 461 OFFCURVE",
"717 -16 CURVE",
"560 -16 LINE",
"73 1412 LINE"
);
}
);
width = 792;
}
);
unicode = 005C;
},
{
glyphname = hyphen;
layers = (
{
layerId = "01C703B5-1257-45FB-9F79-4B1C4C3BA1BB";
paths = (
{
closed = 1;
nodes = (
"143 439 LINE",
"143 606 LINE",
"632 606 LINE",
"632 439 LINE"
);
}
);
width = 776;
}
);
unicode = 002D;
},
{
glyphname = endash;
layers = (
{
layerId = "01C703B5-1257-45FB-9F79-4B1C4C3BA1BB";
paths = (
{
closed = 1;
nodes = (
"149 444 LINE",
"149 608 LINE",
"1057 608 LINE",
"1057 444 LINE"
);
}
);
width = 1207;
}
);
unicode = 2013;
},
{
glyphname = emdash;
layers = (
{
layerId = "01C703B5-1257-45FB-9F79-4B1C4C3BA1BB";
paths = (
{
closed = 1;
nodes = (
"150 444 LINE",
"150 608 LINE",
"1756 608 LINE",
"1756 444 LINE"
);
}
);
width = 1906;
}
);
unicode = 2014;
},
{
glyphname = underscore;
layers = (
{
layerId = "01C703B5-1257-45FB-9F79-4B1C4C3BA1BB";
paths = (
{
closed = 1;
nodes = (
"1012 -273 LINE",
"105 -273 LINE",
"105 -145 LINE",
"1012 -145 LINE"
);
}
);
width = 1116;
}
);
unicode = 005F;
},
{
glyphname = parenleft;
layers = (
{
layerId = "01C703B5-1257-45FB-9F79-4B1C4C3BA1BB";
paths = (
{
closed = 1;
nodes = (
"100 915 OFFCURVE",
"233 1260 OFFCURVE",
"353 1449 CURVE",
"508 1449 LINE",
"380 1204 OFFCURVE",
"288 864 OFFCURVE",
"288 601 CURVE SMOOTH",
"288 317 OFFCURVE",
"359 75 OFFCURVE",
"511 -261 CURVE",
"358 -261 LINE",
"211 -12 OFFCURVE",
"100 302 OFFCURVE",
"100 598 CURVE SMOOTH"
);
}
);
width = 579;
}
);
unicode = 0028;
},
{
glyphname = parenright;
layers = (
{
layerId = "01C703B5-1257-45FB-9F79-4B1C4C3BA1BB";
paths = (
{
closed = 1;
nodes = (
"220 1449 LINE",
"367 1196 OFFCURVE",
"479 879 OFFCURVE",
"479 583 CURVE SMOOTH",
"479 269 OFFCURVE",
"347 -80 OFFCURVE",
"227 -261 CURVE",
"72 -261 LINE",
"200 -4 OFFCURVE",
"290 282 OFFCURVE",
"290 582 CURVE SMOOTH",
"290 870 OFFCURVE",
"219 1110 OFFCURVE",
"67 1449 CURVE"
);
}
);
width = 579;
}
);
unicode = 0029;
},
{
glyphname = braceleft;
layers = (
{
layerId = "01C703B5-1257-45FB-9F79-4B1C4C3BA1BB";
paths = (
{
closed = 1;
nodes = (
"646 -268 LINE",
"338 -255 OFFCURVE",
"274 -90 OFFCURVE",
"274 115 CURVE SMOOTH",
"274 289 LINE SMOOTH",
"274 462 OFFCURVE",
"174 508 OFFCURVE",
"22 521 CURVE",
"22 654 LINE",
"241 673 OFFCURVE",
"274 760 OFFCURVE",
"274 887 CURVE SMOOTH",
"274 1068 LINE SMOOTH",
"274 1284 OFFCURVE",
"350 1429 OFFCURVE",
"645 1442 CURVE",
"653 1311 LINE",
"482 1290 OFFCURVE",
"448 1213 OFFCURVE",
"448 1077 CURVE SMOOTH",
"448 902 LINE SMOOTH",
"448 771 OFFCURVE",
"414 643 OFFCURVE",
"238 587 CURVE",
"415 531 OFFCURVE",
"448 400 OFFCURVE",
"448 274 CURVE SMOOTH",
"448 161 LINE SMOOTH",
"448 -2 OFFCURVE",
"447 -118 OFFCURVE",
"653 -134 CURVE"
);
}
);
width = 717;
}
);
unicode = 007B;
},
{
glyphname = braceright;
layers = (
{
layerId = "01C703B5-1257-45FB-9F79-4B1C4C3BA1BB";
paths = (
{
closed = 1;
nodes = (
"64 -134 LINE",
"270 -118 OFFCURVE",
"269 -2 OFFCURVE",
"269 161 CURVE SMOOTH",
"269 274 LINE SMOOTH",
"269 400 OFFCURVE",
"302 531 OFFCURVE",
"479 587 CURVE",
"303 643 OFFCURVE",
"269 771 OFFCURVE",
"269 902 CURVE SMOOTH",
"269 1077 LINE SMOOTH",
"269 1213 OFFCURVE",
"235 1290 OFFCURVE",
"64 1311 CURVE",
"72 1442 LINE",
"367 1429 OFFCURVE",
"443 1284 OFFCURVE",
"443 1068 CURVE SMOOTH",
"443 887 LINE SMOOTH",
"443 760 OFFCURVE",
"476 673 OFFCURVE",
"695 654 CURVE",
"695 521 LINE",
"543 508 OFFCURVE",
"443 462 OFFCURVE",
"443 289 CURVE SMOOTH",
"443 115 LINE SMOOTH",
"443 -90 OFFCURVE",
"379 -255 OFFCURVE",
"71 -268 CURVE"
);
}
);
width = 717;
}
);
unicode = 007D;
},
{
glyphname = bracketleft;
layers = (
{
layerId = "01C703B5-1257-45FB-9F79-4B1C4C3BA1BB";
paths = (
{
closed = 1;
nodes = (
"540 -272 LINE",
"172 -272 LINE",
"172 1442 LINE",
"540 1442 LINE",
"540 1308 LINE",
"344 1308 LINE",
"344 -135 LINE",
"540 -135 LINE"
);
}
);
width = 609;
}
);
unicode = 005B;
},
{
glyphname = bracketright;
layers = (
{
layerId = "01C703B5-1257-45FB-9F79-4B1C4C3BA1BB";
paths = (
{
closed = 1;
nodes = (
"70 -135 LINE",
"265 -135 LINE",
"265 1308 LINE",
"70 1308 LINE",
"70 1442 LINE",
"438 1442 LINE",
"438 -272 LINE",
"70 -272 LINE"
);
}
);
width = 610;
}
);
unicode = 005D;
},
{
glyphname = quotesinglbase;
layers = (
{
layerId = "01C703B5-1257-45FB-9F79-4B1C4C3BA1BB";
paths = (
{
closed = 1;
nodes = (
"55 -256 LINE",
"166 223 LINE",
"387 223 LINE",
"194 -256 LINE"
);
}
);
width = 511;
}
);
unicode = 201A;
},
{
glyphname = quotedblbase;
layers = (
{
layerId = "01C703B5-1257-45FB-9F79-4B1C4C3BA1BB";
paths = (
{
closed = 1;
nodes = (
"419 -256 LINE",
"529 223 LINE",
"751 223 LINE",
"558 -256 LINE"
);
},
{
closed = 1;
nodes = (
"55 -256 LINE",
"165 223 LINE",
"387 223 LINE",
"194 -256 LINE"
);
}
);
width = 875;
}
);
unicode = 201E;
},
{
glyphname = quotedblleft;
layers = (
{
layerId = "01C703B5-1257-45FB-9F79-4B1C4C3BA1BB";
paths = (
{
closed = 1;
nodes = (
"454 923 LINE",
"652 1412 LINE",
"793 1412 LINE",
"674 923 LINE"
);
},
{
closed = 1;
nodes = (
"92 923 LINE",
"290 1412 LINE",
"431 1412 LINE",
"312 923 LINE"
);
}
);
width = 878;
}
);
unicode = 201C;
},
{
glyphname = quotedblright;
layers = (
{
layerId = "01C703B5-1257-45FB-9F79-4B1C4C3BA1BB";
paths = (
{
closed = 1;
nodes = (
"474 923 LINE",
"585 1412 LINE",
"808 1412 LINE",
"612 923 LINE"
);
},
{
closed = 1;
nodes = (
"109 923 LINE",
"220 1412 LINE",
"443 1412 LINE",
"247 923 LINE"
);
}
);
width = 866;
}
);
unicode = 201D;
},
{
glyphname = quoteleft;
layers = (
{
layerId = "01C703B5-1257-45FB-9F79-4B1C4C3BA1BB";
paths = (
{
closed = 1;
nodes = (
"92 923 LINE",
"290 1412 LINE",
"431 1412 LINE",
"312 923 LINE"
);
}
);
width = 517;
}
);
unicode = 2018;
},
{
glyphname = quoteright;
layers = (
{
layerId = "01C703B5-1257-45FB-9F79-4B1C4C3BA1BB";
paths = (
{
closed = 1;
nodes = (
"109 923 LINE",
"220 1412 LINE",
"443 1412 LINE",
"247 923 LINE"
);
}
);
width = 501;
}
);
unicode = 2019;
},
{
glyphname = guillemotleft;
layers = (
{
layerId = "01C703B5-1257-45FB-9F79-4B1C4C3BA1BB";
paths = (
{
closed = 1;
nodes = (
"476 495 LINE",
"476 513 LINE",
"730 900 LINE",
"876 863 LINE",
"670 503 LINE",
"877 141 LINE",
"730 108 LINE"
);
},
{
closed = 1;
nodes = (
"95 495 LINE",
"95 514 LINE",
"347 900 LINE",
"493 863 LINE",
"285 503 LINE",
"494 141 LINE",
"347 107 LINE"
);
}
);
width = 989;
}
);
unicode = 00AB;
},
{
glyphname = guillemotright;
layers = (
{
layerId = "01C703B5-1257-45FB-9F79-4B1C4C3BA1BB";
paths = (
{
closed = 1;
nodes = (
"322 502 LINE",
"114 863 LINE",
"260 900 LINE",
"514 511 LINE",
"514 492 LINE",
"260 107 LINE",
"116 141 LINE"
);
},
{
closed = 1;
nodes = (
"705 502 LINE",
"497 863 LINE",
"643 900 LINE",
"898 511 LINE",
"896 492 LINE",
"642 107 LINE",
"498 141 LINE"
);
}
);
width = 991;
}
);
unicode = 00BB;
},
{
glyphname = guilsinglleft;
layers = (
{
layerId = "01C703B5-1257-45FB-9F79-4B1C4C3BA1BB";
paths = (
{
closed = 1;
nodes = (
"347 108 LINE",
"93 495 LINE",
"93 514 LINE",
"348 900 LINE",
"490 863 LINE",
"282 503 LINE",
"492 141 LINE"
);
}
);
width = 605;
}
);
unicode = 2039;
},
{
glyphname = guilsinglright;
layers = (
{
layerId = "01C703B5-1257-45FB-9F79-4B1C4C3BA1BB";
paths = (
{
closed = 1;
nodes = (
"319 502 LINE",
"112 863 LINE",
"258 900 LINE",
"512 511 LINE",
"512 493 LINE",
"258 107 LINE",
"113 141 LINE"
);
}
);
width = 605;
}
);
unicode = 203A;
},
{
glyphname = quotedbl;
layers = (
{
layerId = "01C703B5-1257-45FB-9F79-4B1C4C3BA1BB";
paths = (
{
closed = 1;
nodes = (
"308 1377 LINE",
"308 875 LINE",
"169 875 LINE",
"123 1377 LINE"
);
},
{
closed = 1;
nodes = (
"638 1377 LINE",
"593 875 LINE",
"474 875 LINE",
"474 1377 LINE"
);
}
);
width = 762;
}
);
unicode = 0022;
},
{
glyphname = quotesingle;
layers = (
{
layerId = "01C703B5-1257-45FB-9F79-4B1C4C3BA1BB";
paths = (
{
closed = 1;
nodes = (
"267 875 LINE",
"149 875 LINE",
"149 1377 LINE",
"312 1377 LINE"
);
}
);
width = 437;
}
);
unicode = 0027;
},
{
glyphname = florin;
layers = (
{
layerId = "01C703B5-1257-45FB-9F79-4B1C4C3BA1BB";
paths = (
{
closed = 1;
nodes = (
"105 823 LINE",
"281 823 LINE",
"324 1030 LINE SMOOTH",
"357 1189 OFFCURVE",
"414 1342 OFFCURVE",
"651 1342 CURVE SMOOTH",
"686 1342 OFFCURVE",
"718 1338 OFFCURVE",
"763 1331 CURVE",
"739 1180 LINE",
"716 1180 OFFCURVE",
"696 1186 OFFCURVE",
"667 1186 CURVE SMOOTH",
"552 1186 OFFCURVE",
"520 1102 OFFCURVE",
"503 1023 CURVE SMOOTH",
"460 823 LINE",
"665 823 LINE",
"656 776 OFFCURVE",
"646 727 OFFCURVE",
"635 680 CURVE",
"435 680 LINE",
"318 54 LINE SMOOTH",
"265 -230 OFFCURVE",
"215 -384 OFFCURVE",
"-47 -384 CURVE SMOOTH",
"-58 -384 OFFCURVE",
"-73 -384 OFFCURVE",
"-97 -380 CURVE",
"-88 -324 OFFCURVE",
"-79 -279 OFFCURVE",
"-71 -228 CURVE",
"-55 -231 OFFCURVE",
"-44 -232 OFFCURVE",
"-37 -232 CURVE SMOOTH",
"111 -232 OFFCURVE",
"101 -111 OFFCURVE",
"141 104 CURVE",
"252 680 LINE",
"78 680 LINE"
);
}
);
width = 701;
}
);
unicode = 0192;
},
{
glyphname = at;
layers = (
{
layerId = "01C703B5-1257-45FB-9F79-4B1C4C3BA1BB";
paths = (
{
closed = 1;
nodes = (
"389 -77 OFFCURVE",
"98 202 OFFCURVE",
"98 647 CURVE SMOOTH",
"98 1137 OFFCURVE",
"451 1442 OFFCURVE",
"888 1442 CURVE SMOOTH",
"1251 1442 OFFCURVE",
"1554 1220 OFFCURVE",
"1554 807 CURVE SMOOTH",
"1554 524 OFFCURVE",
"1388 300 OFFCURVE",
"1185 300 CURVE SMOOTH",
"1084 300 OFFCURVE",
"1023 360 OFFCURVE",
"1019 485 CURVE",
"961 397 OFFCURVE",
"888 300 OFFCURVE",
"750 300 CURVE SMOOTH",
"591 300 OFFCURVE",
"469 416 OFFCURVE",
"469 601 CURVE SMOOTH",
"469 845 OFFCURVE",
"598 1090 OFFCURVE",
"862 1090 CURVE SMOOTH",
"930 1090 OFFCURVE",
"998 1060 OFFCURVE",
"1058 1000 CURVE",
"1057 1015 OFFCURVE",
"1063 1032 OFFCURVE",
"1065 1045 CURVE SMOOTH",
"1069 1068 LINE",
"1208 1049 LINE",
"1134 646 LINE",
"1123 595 OFFCURVE",
"1120 553 OFFCURVE",
"1120 521 CURVE SMOOTH",
"1120 441 OFFCURVE",
"1148 413 OFFCURVE",
"1209 413 CURVE SMOOTH",
"1326 413 OFFCURVE",
"1431 585 OFFCURVE",
"1431 813 CURVE SMOOTH",
"1431 1153 OFFCURVE",
"1184 1322 OFFCURVE",
"888 1322 CURVE SMOOTH",
"499 1322 OFFCURVE",
"221 1063 OFFCURVE",
"221 647 CURVE SMOOTH",
"221 267 OFFCURVE",
"462 42 OFFCURVE",
"837 42 CURVE SMOOTH",
"1021 42 OFFCURVE",
"1180 108 OFFCURVE",
"1316 183 CURVE",
"1347 72 LINE",
"1200 -16 OFFCURVE",
"1039 -77 OFFCURVE",
"834 -77 CURVE SMOOTH"
);
},
{
closed = 1;
nodes = (
"947 423 OFFCURVE",
"974 632 OFFCURVE",
"1002 733 CURVE",
"1038 940 LINE",
"969 954 LINE SMOOTH",
"932 961 OFFCURVE",
"899 969 OFFCURVE",
"880 969 CURVE SMOOTH",
"712 969 OFFCURVE",
"617 775 OFFCURVE",
"617 626 CURVE",
"620 497 OFFCURVE",
"677 423 OFFCURVE",
"782 423 CURVE SMOOTH"
);
}
);
width = 1642;
}
);
unicode = 0040;
},
{
glyphname = ampersand;
layers = (
{
layerId = "01C703B5-1257-45FB-9F79-4B1C4C3BA1BB";
paths = (
{
closed = 1;
nodes = (
"97 583 OFFCURVE",
"222 697 OFFCURVE",
"380 807 CURVE",
"312 881 OFFCURVE",
"228 985 OFFCURVE",
"228 1135 CURVE SMOOTH",
"228 1327 OFFCURVE",
"361 1449 OFFCURVE",
"598 1449 CURVE SMOOTH",
"796 1449 OFFCURVE",
"959 1354 OFFCURVE",
"959 1150 CURVE SMOOTH",
"959 969 OFFCURVE",
"804 850 OFFCURVE",
"687 775 CURVE",
"1015 441 LINE",
"1081 537 OFFCURVE",
"1113 635 OFFCURVE",
"1126 812 CURVE",
"1319 812 LINE",
"1300 589 OFFCURVE",
"1247 453 OFFCURVE",
"1138 315 CURVE",
"1444 1 LINE",
"1185 1 LINE",
"1014 171 LINE",
"881 51 OFFCURVE",
"742 -22 OFFCURVE",
"552 -22 CURVE SMOOTH",
"264 -22 OFFCURVE",
"97 141 OFFCURVE",
"97 377 CURVE SMOOTH"
);
},
{
closed = 1;
nodes = (
"724 151 OFFCURVE",
"822 228 OFFCURVE",
"889 293 CURVE",
"804 374 OFFCURVE",
"718 461 OFFCURVE",
"638 545 CURVE SMOOTH",
"505 684 LINE",
"361 583 OFFCURVE",
"300 499 OFFCURVE",
"300 383 CURVE SMOOTH",
"300 221 OFFCURVE",
"437 151 OFFCURVE",
"568 151 CURVE SMOOTH"
);
},
{
closed = 1;
nodes = (
"428 1064 OFFCURVE",
"475 990 OFFCURVE",
"563 902 CURVE",
"658 963 OFFCURVE",
"758 1044 OFFCURVE",
"758 1147 CURVE SMOOTH",
"758 1215 OFFCURVE",
"706 1285 OFFCURVE",
"598 1285 CURVE SMOOTH",
"496 1285 OFFCURVE",
"428 1223 OFFCURVE",
"428 1140 CURVE SMOOTH"
);
}
);
width = 1452;
}
);
unicode = 0026;
},
{
glyphname = paragraph;
layers = (
{
layerId = "01C703B5-1257-45FB-9F79-4B1C4C3BA1BB";
paths = (
{
closed = 1;
nodes = (
"874 -290 LINE",
"874 1261 LINE",
"671 1261 LINE",
"671 -290 LINE",
"526 -290 LINE",
"526 518 LINE",
"511 517 OFFCURVE",
"485 516 OFFCURVE",
"470 516 CURVE SMOOTH",
"209 516 OFFCURVE",
"66 707 OFFCURVE",
"66 971 CURVE SMOOTH",
"66 1247 OFFCURVE",
"205 1412 OFFCURVE",
"541 1412 CURVE SMOOTH",
"1075 1412 LINE",
"1075 1259 LINE",
"1020 1259 LINE",
"1020 -290 LINE"
);
}
);
width = 1222;
}
);
unicode = 00B6;
},
{
glyphname = section;
layers = (
{
layerId = "01C703B5-1257-45FB-9F79-4B1C4C3BA1BB";
paths = (
{
closed = 1;
nodes = (
"318 -26 OFFCURVE",
"231 -8 OFFCURVE",
"146 27 CURVE",
"146 202 LINE",
"213 170 OFFCURVE",
"322 129 OFFCURVE",
"431 129 CURVE SMOOTH",
"605 129 OFFCURVE",
"636 218 OFFCURVE",
"636 262 CURVE SMOOTH",
"636 349 OFFCURVE",
"508 379 OFFCURVE",
"385 429 CURVE SMOOTH",
"296 465 OFFCURVE",
"136 527 OFFCURVE",
"136 702 CURVE SMOOTH",
"136 833 OFFCURVE",
"231 908 OFFCURVE",
"308 951 CURVE",
"212 998 OFFCURVE",
"153 1069 OFFCURVE",
"153 1173 CURVE SMOOTH",
"153 1344 OFFCURVE",
"297 1442 OFFCURVE",
"512 1442 CURVE SMOOTH",
"595 1442 OFFCURVE",
"686 1425 OFFCURVE",
"786 1391 CURVE",
"758 1234 LINE",
"674 1269 OFFCURVE",
"595 1294 OFFCURVE",
"518 1294 CURVE SMOOTH",
"434 1294 OFFCURVE",
"340 1274 OFFCURVE",
"340 1181 CURVE SMOOTH",
"340 1109 OFFCURVE",
"396 1081 OFFCURVE",
"549 1022 CURVE SMOOTH",
"666 977 OFFCURVE",
"819 920 OFFCURVE",
"819 741 CURVE SMOOTH",
"819 616 OFFCURVE",
"761 538 OFFCURVE",
"661 487 CURVE",
"744 447 OFFCURVE",
"828 400 OFFCURVE",
"828 272 CURVE SMOOTH",
"828 93 OFFCURVE",
"679 -26 OFFCURVE",
"423 -26 CURVE SMOOTH"
);
},
{
closed = 1;
nodes = (
"305 640 OFFCURVE",
"399 583 OFFCURVE",
"519 546 CURVE",
"568 570 OFFCURVE",
"652 620 OFFCURVE",
"652 711 CURVE SMOOTH",
"652 801 OFFCURVE",
"580 844 OFFCURVE",
"443 892 CURVE",
"379 868 OFFCURVE",
"305 815 OFFCURVE",
"305 731 CURVE SMOOTH"
);
}
);
width = 955;
}
);
unicode = 00A7;
},
{
glyphname = copyright;
layers = (
{
layerId = "01C703B5-1257-45FB-9F79-4B1C4C3BA1BB";
paths = (
{
closed = 1;
nodes = (
"477 908 OFFCURVE",
"572 1151 OFFCURVE",
"843 1151 CURVE SMOOTH",
"938 1151 OFFCURVE",
"1060 1116 OFFCURVE",
"1108 984 CURVE",
"1012 925 LINE",
"972 1016 OFFCURVE",
"913 1028 OFFCURVE",
"840 1028 CURVE SMOOTH",
"669 1028 OFFCURVE",
"619 852 OFFCURVE",
"619 711 CURVE SMOOTH",
"619 572 OFFCURVE",
"668 398 OFFCURVE",
"840 398 CURVE SMOOTH",
"913 398 OFFCURVE",
"972 409 OFFCURVE",
"1012 501 CURVE",
"1108 442 LINE",
"1060 310 OFFCURVE",
"938 275 OFFCURVE",
"843 275 CURVE SMOOTH",
"568 275 OFFCURVE",
"477 515 OFFCURVE",
"477 712 CURVE SMOOTH"
);
},
{
closed = 1;
nodes = (
"93 1108 OFFCURVE",
"417 1442 OFFCURVE",
"824 1442 CURVE SMOOTH",
"1226 1442 OFFCURVE",
"1554 1110 OFFCURVE",
"1554 706 CURVE SMOOTH",
"1554 301 OFFCURVE",
"1226 -26 OFFCURVE",
"824 -26 CURVE SMOOTH",
"417 -26 OFFCURVE",
"93 303 OFFCURVE",
"93 706 CURVE SMOOTH"
);
},
{
closed = 1;
nodes = (
"197 363 OFFCURVE",
"476 83 OFFCURVE",
"824 83 CURVE SMOOTH",
"1172 83 OFFCURVE",
"1448 363 OFFCURVE",
"1448 706 CURVE SMOOTH",
"1448 1050 OFFCURVE",
"1170 1334 OFFCURVE",
"824 1334 CURVE SMOOTH",
"477 1334 OFFCURVE",
"197 1050 OFFCURVE",
"197 706 CURVE SMOOTH"
);
}
);
width = 1647;
}
);
unicode = 00A9;
},
{
glyphname = registered;
layers = (
{
layerId = "01C703B5-1257-45FB-9F79-4B1C4C3BA1BB";
paths = (
{
closed = 1;
nodes = (
"553 301 LINE",
"553 1129 LINE",
"813 1129 LINE SMOOTH",
"945 1129 OFFCURVE",
"1105 1091 OFFCURVE",
"1105 899 CURVE SMOOTH",
"1105 836 OFFCURVE",
"1070 745 OFFCURVE",
"970 694 CURVE",
"1114 654 OFFCURVE",
"1096 441 OFFCURVE",
"1152 301 CURVE",
"1009 301 LINE",
"942 560 OFFCURVE",
"962 646 OFFCURVE",
"811 646 CURVE SMOOTH",
"693 646 LINE",
"693 301 LINE"
);
},
{
closed = 1;
nodes = (
"693 1006 LINE",
"693 768 LINE",
"811 768 LINE SMOOTH",
"888 768 OFFCURVE",
"964 788 OFFCURVE",
"964 888 CURVE SMOOTH",
"964 990 OFFCURVE",
"890 1006 OFFCURVE",
"810 1006 CURVE SMOOTH"
);
},
{
closed = 1;
nodes = (
"196 363 OFFCURVE",
"478 82 OFFCURVE",
"821 82 CURVE SMOOTH",
"1168 82 OFFCURVE",
"1444 364 OFFCURVE",
"1444 711 CURVE SMOOTH",
"1444 1051 OFFCURVE",
"1171 1334 OFFCURVE",
"821 1334 CURVE SMOOTH",
"478 1334 OFFCURVE",
"196 1054 OFFCURVE",
"196 711 CURVE SMOOTH"
);
},
{
closed = 1;
nodes = (
"92 1119 OFFCURVE",
"425 1442 OFFCURVE",
"821 1442 CURVE SMOOTH",
"1223 1442 OFFCURVE",
"1550 1117 OFFCURVE",
"1550 711 CURVE SMOOTH",
"1550 304 OFFCURVE",
"1221 -26 OFFCURVE",
"821 -26 CURVE SMOOTH",
"423 -26 OFFCURVE",
"92 304 OFFCURVE",
"92 711 CURVE SMOOTH"
);
}
);
width = 1644;
}
);
unicode = 00AE;
},
{
glyphname = trademark;
layers = (
{
layerId = "01C703B5-1257-45FB-9F79-4B1C4C3BA1BB";
paths = (
{
closed = 1;
nodes = (
"851 1222 LINE",
"826 1314 LINE",
"826 696 LINE",
"726 696 LINE",
"726 1412 LINE",
"897 1412 LINE",
"1080 846 LINE",
"1269 1412 LINE",
"1430 1412 LINE",
"1430 696 LINE",
"1330 696 LINE",
"1330 1318 LINE",
"1305 1226 LINE",
"1121 696 LINE",
"1027 696 LINE"
);
},
{
closed = 1;
nodes = (
"310 1313 LINE",
"112 1313 LINE",
"112 1412 LINE",
"612 1412 LINE",
"612 1313 LINE",
"405 1313 LINE",
"405 696 LINE",
"310 696 LINE"
);
}
);
width = 1603;
}
);
unicode = 2122;
},
{
glyphname = degree;
layers = (
{
layerId = "01C703B5-1257-45FB-9F79-4B1C4C3BA1BB";
paths = (
{
closed = 1;
nodes = (
"98 1275 OFFCURVE",
"236 1412 OFFCURVE",
"404 1412 CURVE SMOOTH",
"572 1412 OFFCURVE",
"710 1275 OFFCURVE",
"710 1104 CURVE SMOOTH",
"710 936 OFFCURVE",
"573 797 OFFCURVE",
"404 797 CURVE SMOOTH",
"236 797 OFFCURVE",
"98 935 OFFCURVE",
"98 1104 CURVE SMOOTH"
);
},
{
closed = 1;
nodes = (
"234 1012 OFFCURVE",
"311 937 OFFCURVE",
"404 937 CURVE SMOOTH",
"500 937 OFFCURVE",
"574 1013 OFFCURVE",
"574 1104 CURVE SMOOTH",
"574 1196 OFFCURVE",
"497 1273 OFFCURVE",
"404 1273 CURVE SMOOTH",
"311 1273 OFFCURVE",
"234 1199 OFFCURVE",
"234 1104 CURVE SMOOTH"
);
}
);
width = 808;
}
);
unicode = 00B0;
},
{
glyphname = bar;
layers = (
{
layerId = "01C703B5-1257-45FB-9F79-4B1C4C3BA1BB";
paths = (
{
closed = 1;
nodes = (
"167 1442 LINE",
"330 1442 LINE",
"330 -477 LINE",
"167 -477 LINE"
);
}
);
width = 497;
}
);
unicode = 007C;
},
{
glyphname = brokenbar;
layers = (
{
layerId = "01C703B5-1257-45FB-9F79-4B1C4C3BA1BB";
paths = (
{
closed = 1;
nodes = (
"177 1442 LINE",
"340 1442 LINE",
"340 719 LINE",
"177 719 LINE"
);
},
{
closed = 1;
nodes = (
"177 300 LINE",
"340 300 LINE",
"340 -477 LINE",
"177 -477 LINE"
);
}
);
width = 517;
}
);
unicode = 00A6;
},
{
glyphname = dagger;
layers = (
{
layerId = "01C703B5-1257-45FB-9F79-4B1C4C3BA1BB";
paths = (
{
closed = 1;
nodes = (
"394 929 LINE",
"65 929 LINE",
"65 1088 LINE",
"394 1088 LINE",
"394 1412 LINE",
"558 1412 LINE",
"558 1088 LINE",
"883 1088 LINE",
"883 929 LINE",
"558 929 LINE",
"558 0 LINE",
"394 0 LINE"
);
}
);
width = 948;
}
);
unicode = 2020;
},
{
glyphname = daggerdbl;
layers = (
{
layerId = "01C703B5-1257-45FB-9F79-4B1C4C3BA1BB";
paths = (
{
closed = 1;
nodes = (
"453 327 LINE",
"124 327 LINE",
"124 486 LINE",
"453 486 LINE",
"453 929 LINE",
"124 929 LINE",
"124 1089 LINE",
"453 1089 LINE",
"453 1412 LINE",
"619 1412 LINE",
"619 1089 LINE",
"948 1089 LINE",
"948 929 LINE",
"619 929 LINE",
"619 486 LINE",
"948 486 LINE",
"948 327 LINE",
"619 327 LINE",
"619 0 LINE",
"453 0 LINE"
);
}
);
width = 1073;
}
);
unicode = 2021;
},
{
glyphname = Euro;
layers = (
{
layerId = "01C703B5-1257-45FB-9F79-4B1C4C3BA1BB";
paths = (
{
closed = 1;
nodes = (
"1147 363 LINE",
"1143 237 OFFCURVE",
"1060 -26 OFFCURVE",
"727 -26 CURVE SMOOTH",
"441 -26 OFFCURVE",
"284 160 OFFCURVE",
"233 454 CURVE",
"79 454 LINE",
"120 587 LINE",
"217 587 LINE",
"214 610 OFFCURVE",
"213 633 OFFCURVE",
"213 657 CURVE SMOOTH",
"213 676 OFFCURVE",
"214 709 OFFCURVE",
"217 729 CURVE",
"78 729 LINE",
"121 862 LINE",
"231 862 LINE",
"282 1164 OFFCURVE",
"463 1375 OFFCURVE",
"734 1375 CURVE SMOOTH",
"946 1375 OFFCURVE",
"1131 1239 OFFCURVE",
"1144 967 CURVE",
"960 967 LINE",
"944 1199 OFFCURVE",
"773 1212 OFFCURVE",
"734 1212 CURVE SMOOTH",
"585 1212 OFFCURVE",
"466 1068 OFFCURVE",
"423 862 CURVE",
"875 862 LINE",
"832 729 LINE",
"410 729 LINE",
"407 706 OFFCURVE",
"405 684 OFFCURVE",
"405 661 CURVE SMOOTH",
"405 636 OFFCURVE",
"407 612 OFFCURVE",
"411 587 CURVE",
"812 587 LINE",
"770 454 LINE",
"426 454 LINE",
"466 274 OFFCURVE",
"557 136 OFFCURVE",
"722 136 CURVE SMOOTH",
"859 136 OFFCURVE",
"954 217 OFFCURVE",
"973 370 CURVE"
);
}
);
width = 1265;
}
);
unicode = 20AC;
},
{
glyphname = cent;
layers = (
{
layerId = "01C703B5-1257-45FB-9F79-4B1C4C3BA1BB";
paths = (
{
closed = 1;
nodes = (
"664 1302 LINE",
"782 1302 LINE",
"703 1034 LINE",
"740 1013 LINE SMOOTH",
"787 986 OFFCURVE",
"825 952 OFFCURVE",
"856 924 CURVE",
"767 803 LINE",
"735 827 OFFCURVE",
"719 844 OFFCURVE",
"654 871 CURVE",
"443 153 LINE",
"479 141 OFFCURVE",
"513 136 OFFCURVE",
"550 136 CURVE SMOOTH",
"653 136 OFFCURVE",
"733 187 OFFCURVE",
"794 235 CURVE",
"843 107 LINE",
"784 30 OFFCURVE",
"694 -26 OFFCURVE",
"550 -26 CURVE SMOOTH",
"503 -26 OFFCURVE",
"452 -18 OFFCURVE",
"396 -5 CURVE",
"330 -233 LINE",
"213 -233 LINE",
"293 43 LINE",
"178 120 OFFCURVE",
"94 266 OFFCURVE",
"94 508 CURVE SMOOTH",
"94 925 OFFCURVE",
"319 1054 OFFCURVE",
"573 1054 CURVE SMOOTH",
"577 1054 OFFCURVE",
"583 1054 OFFCURVE",
"590 1052 CURVE"
);
},
{
closed = 1;
nodes = (
"286 409 OFFCURVE",
"306 312 OFFCURVE",
"347 228 CURVE",
"543 893 LINE",
"347 872 OFFCURVE",
"286 719 OFFCURVE",
"286 514 CURVE SMOOTH"
);
}
);
width = 953;
}
);
unicode = 00A2;
},
{
glyphname = currency;
layers = (
{
layerId = "01C703B5-1257-45FB-9F79-4B1C4C3BA1BB";
paths = (
{
closed = 1;
nodes = (
"150 989 OFFCURVE",
"195 1113 OFFCURVE",
"272 1217 CURVE",
"175 1315 LINE",
"279 1418 LINE",
"376 1320 LINE",
"480 1396 OFFCURVE",
"601 1442 OFFCURVE",
"734 1442 CURVE SMOOTH",
"863 1442 OFFCURVE",
"985 1397 OFFCURVE",
"1089 1321 CURVE",
"1186 1418 LINE",
"1290 1315 LINE",
"1193 1217 LINE",
"1273 1116 OFFCURVE",
"1317 993 OFFCURVE",
"1317 856 CURVE SMOOTH",
"1317 723 OFFCURVE",
"1273 602 OFFCURVE",
"1196 501 CURVE",
"1225 470 OFFCURVE",
"1261 436 OFFCURVE",
"1290 407 CURVE",
"1186 303 LINE",
"1094 395 LINE",
"990 315 OFFCURVE",
"867 271 OFFCURVE",
"734 271 CURVE SMOOTH",
"601 271 OFFCURVE",
"476 316 OFFCURVE",
"372 396 CURVE",
"279 303 LINE",
"175 407 LINE",
"270 502 LINE",
"194 602 OFFCURVE",
"150 723 OFFCURVE",
"150 856 CURVE SMOOTH"
);
},
{
closed = 1;
nodes = (
"1013 410 OFFCURVE",
"1152 633 OFFCURVE",
"1152 856 CURVE SMOOTH",
"1152 1079 OFFCURVE",
"1012 1302 OFFCURVE",
"734 1302 CURVE SMOOTH",
"455 1302 OFFCURVE",
"316 1079 OFFCURVE",
"316 856 CURVE SMOOTH",
"316 633 OFFCURVE",
"455 410 OFFCURVE",
"734 410 CURVE SMOOTH"
);
}
);
width = 1466;
}
);
unicode = 00A4;
},
{
glyphname = dollar;
layers = (
{
layerId = "01C703B5-1257-45FB-9F79-4B1C4C3BA1BB";
paths = (
{
closed = 1;
nodes = (
"484 39 LINE",
"309 42 OFFCURVE",
"157 108 OFFCURVE",
"90 285 CURVE",
"130 314 OFFCURVE",
"167 337 OFFCURVE",
"206 365 CURVE",
"248 297 OFFCURVE",
"332 215 OFFCURVE",
"484 207 CURVE",
"484 629 LINE",
"204 714 OFFCURVE",
"113 805 OFFCURVE",
"113 1002 CURVE SMOOTH",
"113 1212 OFFCURVE",
"288 1315 OFFCURVE",
"487 1339 CURVE",
"487 1503 LINE",
"611 1503 LINE",
"611 1342 LINE",
"728 1334 OFFCURVE",
"930 1305 OFFCURVE",
"983 1124 CURVE",
"838 1058 LINE",
"798 1138 OFFCURVE",
"713 1167 OFFCURVE",
"610 1178 CURVE",
"610 787 LINE",
"801 729 OFFCURVE",
"1005 636 OFFCURVE",
"1005 409 CURVE SMOOTH",
"1005 185 OFFCURVE",
"822 70 OFFCURVE",
"607 43 CURVE",
"607 -161 LINE",
"484 -161 LINE"
);
},
{
closed = 1;
nodes = (
"808 500 OFFCURVE",
"717 550 OFFCURVE",
"610 590 CURVE",
"610 212 LINE",
"749 228 OFFCURVE",
"808 313 OFFCURVE",
"808 396 CURVE SMOOTH"
);
},
{
closed = 1;
nodes = (
"305 906 OFFCURVE",
"382 863 OFFCURVE",
"486 826 CURVE",
"486 1175 LINE",
"331 1146 OFFCURVE",
"305 1063 OFFCURVE",
"305 1009 CURVE SMOOTH"
);
}
);
width = 1099;
}
);
unicode = 0024;
},
{
glyphname = sterling;
layers = (
{
layerId = "01C703B5-1257-45FB-9F79-4B1C4C3BA1BB";
paths = (
{
closed = 1;
nodes = (
"112 141 LINE",
"224 156 LINE",
"252 172 OFFCURVE",
"269 364 OFFCURVE",
"269 416 CURVE SMOOTH",
"269 648 LINE",
"106 648 LINE",
"106 793 LINE",
"269 793 LINE",
"269 913 LINE SMOOTH",
"269 1142 OFFCURVE",
"293 1442 OFFCURVE",
"682 1442 CURVE SMOOTH",
"837 1442 OFFCURVE",
"978 1385 OFFCURVE",
"1063 1226 CURVE",
"919 1160 LINE",
"880 1241 OFFCURVE",
"801 1293 OFFCURVE",
"688 1293 CURVE SMOOTH",
"499 1293 OFFCURVE",
"463 1157 OFFCURVE",
"463 987 CURVE SMOOTH",
"463 793 LINE",
"774 793 LINE",
"774 648 LINE",
"463 648 LINE",
"463 416 LINE SMOOTH",
"463 357 OFFCURVE",
"440 229 OFFCURVE",
"410 156 CURVE",
"1063 156 LINE",
"1063 0 LINE",
"112 0 LINE"
);
}
);
width = 1163;
}
);
unicode = 00A3;
},
{
glyphname = yen;
layers = (
{
layerId = "01C703B5-1257-45FB-9F79-4B1C4C3BA1BB";
paths = (
{
closed = 1;
nodes = (
"504 0 LINE",
"504 286 LINE",
"179 286 LINE",
"179 424 LINE",
"504 424 LINE",
"504 536 LINE",
"179 536 LINE",
"179 675 LINE",
"439 675 LINE",
"318 916 OFFCURVE",
"190 1169 OFFCURVE",
"65 1412 CURVE",
"292 1412 LINE",
"605 722 LINE",
"923 1412 LINE",
"1137 1412 LINE",
"763 675 LINE",
"1020 675 LINE",
"1020 536 LINE",
"696 536 LINE",
"696 424 LINE",
"1020 424 LINE",
"1020 286 LINE",
"696 286 LINE",
"696 0 LINE"
);
}
);
width = 1202;
}
);
unicode = 00A5;
},
{
glyphname = plus;
layers = (
{
layerId = "01C703B5-1257-45FB-9F79-4B1C4C3BA1BB";
paths = (
{
closed = 1;
nodes = (
"478 505 LINE",
"87 505 LINE",
"87 665 LINE",
"478 665 LINE",
"478 1058 LINE",
"642 1058 LINE",
"642 665 LINE",
"1035 665 LINE",
"1035 505 LINE",
"642 505 LINE",
"642 114 LINE",
"478 114 LINE"
);
}
);
width = 1122;
}
);
unicode = 002B;
},
{
glyphname = minus;
layers = (
{
layerId = "01C703B5-1257-45FB-9F79-4B1C4C3BA1BB";
paths = (
{
closed = 1;
nodes = (
"160 505 LINE",
"160 665 LINE",
"1108 665 LINE",
"1108 505 LINE"
);
}
);
width = 1268;
}
);
unicode = 2212;
},
{
glyphname = multiply;
layers = (
{
layerId = "01C703B5-1257-45FB-9F79-4B1C4C3BA1BB";
paths = (
{
closed = 1;
nodes = (
"516 470 LINE",
"239 194 LINE",
"127 305 LINE",
"405 581 LINE",
"126 860 LINE",
"243 976 LINE",
"521 699 LINE",
"799 976 LINE",
"911 865 LINE",
"632 587 LINE",
"910 311 LINE",
"792 194 LINE"
);
}
);
width = 1038;
}
);
unicode = 00D7;
},
{
glyphname = divide;
layers = (
{
layerId = "01C703B5-1257-45FB-9F79-4B1C4C3BA1BB";
paths = (
{
closed = 1;
nodes = (
"129 675 LINE",
"1077 675 LINE",
"1077 513 LINE",
"129 513 LINE"
);
},
{
closed = 1;
nodes = (
"489 1053 LINE",
"720 1053 LINE",
"720 814 LINE",
"489 814 LINE"
);
},
{
closed = 1;
nodes = (
"489 366 LINE",
"720 366 LINE",
"720 127 LINE",
"489 127 LINE"
);
}
);
width = 1206;
}
);
unicode = 00F7;
},
{
glyphname = equal;
layers = (
{
layerId = "01C703B5-1257-45FB-9F79-4B1C4C3BA1BB";
paths = (
{
closed = 1;
nodes = (
"160 700 LINE",
"160 860 LINE",
"1108 860 LINE",
"1108 700 LINE"
);
},
{
closed = 1;
nodes = (
"160 308 LINE",
"160 470 LINE",
"1108 470 LINE",
"1108 308 LINE"
);
}
);
width = 1268;
}
);
unicode = 003D;
},
{
glyphname = notequal;
layers = (
{
layerId = "01C703B5-1257-45FB-9F79-4B1C4C3BA1BB";
paths = (
{
closed = 1;
nodes = (
"742 804 LINE",
"1032 804 LINE",
"1032 687 LINE",
"693 687 LINE",
"572 421 LINE",
"1032 421 LINE",
"1032 305 LINE",
"524 305 LINE",
"421 76 LINE",
"329 118 LINE",
"415 305 LINE",
"132 305 LINE",
"132 421 LINE",
"464 421 LINE",
"582 687 LINE",
"132 687 LINE",
"132 804 LINE",
"630 804 LINE",
"731 1028 LINE",
"824 986 LINE"
);
}
);
width = 1167;
}
);
unicode = 2260;
},
{
glyphname = greater;
layers = (
{
layerId = "01C703B5-1257-45FB-9F79-4B1C4C3BA1BB";
paths = (
{
closed = 1;
nodes = (
"139 289 LINE",
"871 585 LINE",
"139 899 LINE",
"139 1074 LINE",
"1087 651 LINE",
"1087 510 LINE",
"139 111 LINE"
);
}
);
width = 1164;
}
);
unicode = 003E;
},
{
glyphname = less;
layers = (
{
layerId = "01C703B5-1257-45FB-9F79-4B1C4C3BA1BB";
paths = (
{
closed = 1;
nodes = (
"1025 111 LINE",
"77 510 LINE",
"77 651 LINE",
"1025 1074 LINE",
"1025 899 LINE",
"293 585 LINE",
"1025 289 LINE"
);
}
);
width = 1164;
}
);
unicode = 003C;
},
{
glyphname = greaterequal;
layers = (
{
layerId = "01C703B5-1257-45FB-9F79-4B1C4C3BA1BB";
paths = (
{
closed = 1;
nodes = (
"1040 743 LINE",
"1040 622 LINE",
"156 184 LINE",
"156 324 LINE",
"911 683 LINE",
"156 1044 LINE",
"156 1183 LINE"
);
},
{
closed = 1;
nodes = (
"144 2 LINE",
"156 123 LINE",
"1042 123 LINE",
"1042 2 LINE"
);
}
);
width = 1110;
}
);
unicode = 2265;
},
{
glyphname = lessequal;
layers = (
{
layerId = "01C703B5-1257-45FB-9F79-4B1C4C3BA1BB";
paths = (
{
closed = 1;
nodes = (
"76 622 LINE",
"76 744 LINE",
"957 1183 LINE",
"957 1044 LINE",
"200 684 LINE",
"959 324 LINE",
"959 184 LINE"
);
},
{
closed = 1;
nodes = (
"65 2 LINE",
"65 123 LINE",
"964 123 LINE",
"964 2 LINE"
);
}
);
width = 1118;
}
);
unicode = 2264;
},
{
glyphname = plusminus;
layers = (
{
layerId = "01C703B5-1257-45FB-9F79-4B1C4C3BA1BB";
paths = (
{
closed = 1;
nodes = (
"524 564 LINE",
"133 564 LINE",
"133 725 LINE",
"524 725 LINE",
"524 1070 LINE",
"688 1070 LINE",
"688 725 LINE",
"1081 725 LINE",
"1081 564 LINE",
"688 564 LINE",
"688 222 LINE",
"524 222 LINE"
);
},
{
closed = 1;
nodes = (
"133 -13 LINE",
"133 147 LINE",
"1081 147 LINE",
"1081 -13 LINE"
);
}
);
width = 1214;
}
);
unicode = 00B1;
},
{
glyphname = approxequal;
layers = (
{
layerId = "01C703B5-1257-45FB-9F79-4B1C4C3BA1BB";
paths = (
{
closed = 1;
nodes = (
"1079 452 LINE",
"1020 347 OFFCURVE",
"932 259 OFFCURVE",
"820 259 CURVE SMOOTH",
"667 259 OFFCURVE",
"547 405 OFFCURVE",
"418 405 CURVE SMOOTH",
"332 405 OFFCURVE",
"277 336 OFFCURVE",
"226 259 CURVE",
"152 324 LINE",
"216 445 OFFCURVE",
"313 521 OFFCURVE",
"430 521 CURVE SMOOTH",
"579 521 OFFCURVE",
"690 375 OFFCURVE",
"822 375 CURVE SMOOTH",
"897 375 OFFCURVE",
"946 423 OFFCURVE",
"1005 519 CURVE"
);
},
{
closed = 1;
nodes = (
"1079 789 LINE",
"1020 682 OFFCURVE",
"932 596 OFFCURVE",
"820 596 CURVE SMOOTH",
"663 596 OFFCURVE",
"555 741 OFFCURVE",
"416 741 CURVE SMOOTH",
"331 741 OFFCURVE",
"277 671 OFFCURVE",
"226 596 CURVE",
"153 660 LINE",
"217 781 OFFCURVE",
"313 856 OFFCURVE",
"430 856 CURVE SMOOTH",
"577 856 OFFCURVE",
"689 711 OFFCURVE",
"825 711 CURVE SMOOTH",
"897 711 OFFCURVE",
"946 761 OFFCURVE",
"1005 857 CURVE"
);
}
);
width = 1229;
}
);
unicode = 2248;
},
{
glyphname = asciitilde;
layers = (
{
layerId = "01C703B5-1257-45FB-9F79-4B1C4C3BA1BB";
paths = (
{
closed = 1;
nodes = (
"120 514 LINE",
"168 647 OFFCURVE",
"254 728 OFFCURVE",
"379 728 CURVE SMOOTH",
"476 728 OFFCURVE",
"743 602 OFFCURVE",
"852 602 CURVE SMOOTH",
"912 602 OFFCURVE",
"980 642 OFFCURVE",
"1025 734 CURVE",
"1089 656 LINE",
"1041 477 OFFCURVE",
"923 443 OFFCURVE",
"837 443 CURVE SMOOTH",
"682 443 OFFCURVE",
"437 568 OFFCURVE",
"359 568 CURVE SMOOTH",
"302 568 OFFCURVE",
"232 522 OFFCURVE",
"184 434 CURVE"
);
}
);
width = 1208;
}
);
unicode = 007E;
},
{
glyphname = logicalnot;
layers = (
{
layerId = "01C703B5-1257-45FB-9F79-4B1C4C3BA1BB";
paths = (
{
closed = 1;
nodes = (
"1087 771 LINE",
"1087 230 LINE",
"928 230 LINE",
"928 612 LINE",
"139 612 LINE",
"139 771 LINE"
);
}
);
width = 1256;
}
);
unicode = 00AC;
},
{
glyphname = asciicircum;
layers = (
{
layerId = "01C703B5-1257-45FB-9F79-4B1C4C3BA1BB";
paths = (
{
closed = 1;
nodes = (
"100 523 LINE",
"485 1381 LINE",
"614 1381 LINE",
"996 523 LINE",
"824 523 LINE",
"548 1172 LINE",
"271 523 LINE"
);
}
);
width = 1101;
}
);
unicode = 005E;
},
{
glyphname = infinity;
layers = (
{
layerId = "01C703B5-1257-45FB-9F79-4B1C4C3BA1BB";
paths = (
{
closed = 1;
nodes = (
"1443 564 LINE",
"1443 368 OFFCURVE",
"1294 245 OFFCURVE",
"1138 245 CURVE SMOOTH",
"1011 245 OFFCURVE",
"928 316 OFFCURVE",
"787 480 CURVE",
"680 355 OFFCURVE",
"578 245 OFFCURVE",
"420 245 CURVE SMOOTH",
"262 245 OFFCURVE",
"123 377 OFFCURVE",
"123 557 CURVE SMOOTH",
"123 741 OFFCURVE",
"256 876 OFFCURVE",
"436 876 CURVE SMOOTH",
"505 876 OFFCURVE",
"567 851 OFFCURVE",
"627 810 CURVE SMOOTH",
"687 769 OFFCURVE",
"740 697 OFFCURVE",
"793 636 CURVE",
"838 687 OFFCURVE",
"895 764 OFFCURVE",
"950 804 CURVE SMOOTH",
"1009 847 OFFCURVE",
"1075 876 OFFCURVE",
"1152 876 CURVE SMOOTH",
"1323 876 OFFCURVE",
"1443 750 OFFCURVE",
"1443 566 CURVE"
);
},
{
closed = 1;
nodes = (
"438 357 LINE",
"542 357 OFFCURVE",
"633 453 OFFCURVE",
"721 551 CURVE",
"636 658 OFFCURVE",
"556 765 OFFCURVE",
"424 765 CURVE SMOOTH",
"307 765 OFFCURVE",
"239 667 OFFCURVE",
"239 555 CURVE SMOOTH",
"239 448 OFFCURVE",
"321 357 OFFCURVE",
"436 357 CURVE"
);
},
{
closed = 1;
nodes = (
"1138 765 LINE",
"1042 765 OFFCURVE",
"949 670 OFFCURVE",
"854 564 CURVE",
"976 424 OFFCURVE",
"1046 357 OFFCURVE",
"1144 357 CURVE SMOOTH",
"1261 357 OFFCURVE",
"1327 462 OFFCURVE",
"1327 557 CURVE SMOOTH",
"1327 685 OFFCURVE",
"1248 765 OFFCURVE",
"1140 765 CURVE"
);
}
);
width = 1568;
}
);
unicode = 221E;
},
{
glyphname = integral;
layers = (
{
layerId = "01C703B5-1257-45FB-9F79-4B1C4C3BA1BB";
paths = (
{
closed = 1;
nodes = (
"653 1504 LINE",
"628 1519 OFFCURVE",
"601 1527 OFFCURVE",
"580 1527 CURVE SMOOTH",
"470 1527 OFFCURVE",
"423 1421 OFFCURVE",
"423 1147 CURVE SMOOTH",
"423 844 OFFCURVE",
"451 508 OFFCURVE",
"451 187 CURVE SMOOTH",
"451 -222 OFFCURVE",
"317 -315 OFFCURVE",
"161 -315 CURVE SMOOTH",
"112 -315 OFFCURVE",
"56 -297 OFFCURVE",
"24 -280 CURVE",
"51 -146 LINE",
"83 -161 OFFCURVE",
"107 -172 OFFCURVE",
"143 -172 CURVE SMOOTH",
"218 -172 OFFCURVE",
"289 -122 OFFCURVE",
"289 190 CURVE SMOOTH",
"289 516 OFFCURVE",
"264 854 OFFCURVE",
"264 1164 CURVE SMOOTH",
"264 1516 OFFCURVE",
"369 1664 OFFCURVE",
"566 1664 CURVE SMOOTH",
"605 1664 OFFCURVE",
"652 1649 OFFCURVE",
"683 1636 CURVE"
);
}
);
width = 710;
}
);
unicode = 222B;
},
{
glyphname = increment;
layers = (
{
layerId = "01C703B5-1257-45FB-9F79-4B1C4C3BA1BB";
paths = (
{
closed = 1;
nodes = (
"63 119 LINE",
"542 1396 LINE",
"743 1396 LINE",
"1214 121 LINE",
"1214 0 LINE",
"63 0 LINE"
);
},
{
closed = 1;
nodes = (
"1027 150 LINE",
"761 889 LINE",
"643 1227 LINE",
"529 888 LINE",
"529 889 LINE",
"256 150 LINE"
);
}
);
width = 1277;
}
);
unicode = 2206;
},
{
glyphname = product;
layers = (
{
layerId = "01C703B5-1257-45FB-9F79-4B1C4C3BA1BB";
paths = (
{
closed = 1;
nodes = (
"1131 1193 LINE",
"1131 -187 LINE",
"956 -187 LINE",
"956 1193 LINE",
"449 1193 LINE",
"449 -187 LINE",
"274 -187 LINE",
"274 1193 LINE",
"65 1193 LINE",
"65 1361 LINE",
"1338 1361 LINE",
"1338 1193 LINE"
);
}
);
width = 1404;
}
);
unicode = 220F;
},
{
glyphname = summation;
layers = (
{
layerId = "01C703B5-1257-45FB-9F79-4B1C4C3BA1BB";
paths = (
{
closed = 1;
nodes = (
"79 -187 LINE",
"79 -65 LINE",
"586 585 LINE",
"102 1231 LINE",
"102 1361 LINE",
"1047 1361 LINE",
"1047 1204 LINE",
"343 1204 LINE",
"792 611 LINE",
"305 -14 LINE",
"1079 -14 LINE",
"1079 -187 LINE"
);
}
);
width = 1162;
}
);
unicode = 2211;
},
{
glyphname = radical;
layers = (
{
layerId = "01C703B5-1257-45FB-9F79-4B1C4C3BA1BB";
paths = (
{
closed = 1;
nodes = (
"924 1618 LINE",
"1064 1618 LINE",
"630 -283 LINE",
"478 -283 LINE",
"177 597 LINE",
"32 540 LINE",
"-5 654 LINE",
"284 770 LINE",
"548 -57 LINE"
);
}
);
width = 1105;
}
);
unicode = 221A;
},
{
glyphname = mu;
layers = (
{
layerId = "01C703B5-1257-45FB-9F79-4B1C4C3BA1BB";
paths = (
{
closed = 1;
nodes = (
"829 984 LINE",
"1003 984 LINE",
"1003 0 LINE",
"852 0 LINE",
"840 125 LINE",
"779 46 OFFCURVE",
"688 -26 OFFCURVE",
"563 -26 CURVE SMOOTH",
"466 -26 OFFCURVE",
"401 18 OFFCURVE",
"347 69 CURVE",
"347 -40 OFFCURVE",
"350 -165 OFFCURVE",
"350 -221 CURVE SMOOTH",
"350 -438 LINE",
"175 -438 LINE",
"175 984 LINE",
"350 984 LINE",
"350 444 LINE SMOOTH",
"350 281 OFFCURVE",
"382 127 OFFCURVE",
"570 127 CURVE SMOOTH",
"730 127 OFFCURVE",
"829 233 OFFCURVE",
"829 508 CURVE SMOOTH"
);
}
);
width = 1137;
}
);
unicode = 00B5;
},
{
glyphname = partialdiff;
layers = (
{
layerId = "01C703B5-1257-45FB-9F79-4B1C4C3BA1BB";
paths = (
{
closed = 1;
nodes = (
"822 717 OFFCURVE",
"823 732 OFFCURVE",
"823 747 CURVE SMOOTH",
"823 991 OFFCURVE",
"742 1267 OFFCURVE",
"477 1267 CURVE SMOOTH",
"408 1267 OFFCURVE",
"320 1247 OFFCURVE",
"228 1206 CURVE",
"175 1328 LINE",
"289 1381 OFFCURVE",
"394 1408 OFFCURVE",
"489 1408 CURVE SMOOTH",
"822 1408 OFFCURVE",
"1001 1115 OFFCURVE",
"1001 643 CURVE SMOOTH",
"1001 119 OFFCURVE",
"768 -22 OFFCURVE",
"536 -22 CURVE SMOOTH",
"300 -22 OFFCURVE",
"103 129 OFFCURVE",
"103 435 CURVE SMOOTH",
"103 712 OFFCURVE",
"281 861 OFFCURVE",
"510 861 CURVE SMOOTH",
"632 861 OFFCURVE",
"736 808 OFFCURVE",
"822 702 CURVE"
);
},
{
closed = 1;
nodes = (
"379 723 OFFCURVE",
"278 614 OFFCURVE",
"278 436 CURVE SMOOTH",
"278 244 OFFCURVE",
"377 122 OFFCURVE",
"537 122 CURVE SMOOTH",
"697 122 OFFCURVE",
"812 264 OFFCURVE",
"812 449 CURVE SMOOTH",
"812 600 OFFCURVE",
"707 723 OFFCURVE",
"542 723 CURVE SMOOTH"
);
}
);
width = 1130;
}
);
unicode = 2202;
},
{
glyphname = percent;
layers = (
{
layerId = "01C703B5-1257-45FB-9F79-4B1C4C3BA1BB";
paths = (
{
closed = 1;
nodes = (
"238 893 OFFCURVE",
"257 748 OFFCURVE",
"389 748 CURVE SMOOTH",
"517 748 OFFCURVE",
"538 897 OFFCURVE",
"538 1010 CURVE SMOOTH",
"538 1153 OFFCURVE",
"505 1272 OFFCURVE",
"389 1272 CURVE SMOOTH",
"257 1272 OFFCURVE",
"238 1126 OFFCURVE",
"238 1009 CURVE SMOOTH"
);
},
{
closed = 1;
nodes = (
"695 755 OFFCURVE",
"576 616 OFFCURVE",
"387 616 CURVE SMOOTH",
"207 616 OFFCURVE",
"82 748 OFFCURVE",
"82 1008 CURVE SMOOTH",
"82 1247 OFFCURVE",
"183 1405 OFFCURVE",
"396 1405 CURVE SMOOTH",
"607 1405 OFFCURVE",
"695 1239 OFFCURVE",
"695 1015 CURVE SMOOTH"
);
},
{
closed = 1;
nodes = (
"1106 233 OFFCURVE",
"1132 112 OFFCURVE",
"1254 112 CURVE SMOOTH",
"1382 112 OFFCURVE",
"1408 247 OFFCURVE",
"1408 375 CURVE SMOOTH",
"1408 500 OFFCURVE",
"1380 638 OFFCURVE",
"1256 638 CURVE SMOOTH",
"1125 638 OFFCURVE",
"1106 486 OFFCURVE",
"1106 362 CURVE SMOOTH"
);
},
{
closed = 1;
nodes = (
"1562 133 OFFCURVE",
"1465 -22 OFFCURVE",
"1255 -22 CURVE SMOOTH",
"1031 -22 OFFCURVE",
"950 157 OFFCURVE",
"950 372 CURVE SMOOTH",
"950 629 OFFCURVE",
"1070 768 OFFCURVE",
"1255 768 CURVE SMOOTH",
"1379 768 OFFCURVE",
"1562 689 OFFCURVE",
"1562 377 CURVE SMOOTH"
);
},
{
closed = 1;
nodes = (
"1305 1418 LINE",
"1028 925 OFFCURVE",
"760 451 OFFCURVE",
"480 -40 CURVE",
"330 -40 LINE",
"1156 1418 LINE"
);
}
);
width = 1643;
}
);
unicode = 0025;
},
{
glyphname = perthousand;
layers = (
{
layerId = "01C703B5-1257-45FB-9F79-4B1C4C3BA1BB";
paths = (
{
closed = 1;
nodes = (
"238 930 OFFCURVE",
"257 785 OFFCURVE",
"389 785 CURVE SMOOTH",
"517 785 OFFCURVE",
"538 934 OFFCURVE",
"538 1047 CURVE SMOOTH",
"538 1190 OFFCURVE",
"505 1309 OFFCURVE",
"389 1309 CURVE SMOOTH",
"257 1309 OFFCURVE",
"238 1163 OFFCURVE",
"238 1046 CURVE SMOOTH"
);
},
{
closed = 1;
nodes = (
"695 792 OFFCURVE",
"576 653 OFFCURVE",
"387 653 CURVE SMOOTH",
"207 653 OFFCURVE",
"82 785 OFFCURVE",
"82 1045 CURVE SMOOTH",
"82 1284 OFFCURVE",
"183 1442 OFFCURVE",
"396 1442 CURVE SMOOTH",
"607 1442 OFFCURVE",
"695 1276 OFFCURVE",
"695 1052 CURVE SMOOTH"
);
},
{
closed = 1;
nodes = (
"1106 229 OFFCURVE",
"1132 108 OFFCURVE",
"1254 108 CURVE SMOOTH",
"1382 108 OFFCURVE",
"1408 243 OFFCURVE",
"1408 371 CURVE SMOOTH",
"1408 496 OFFCURVE",
"1380 634 OFFCURVE",
"1256 634 CURVE SMOOTH",
"1125 634 OFFCURVE",
"1106 482 OFFCURVE",
"1106 358 CURVE SMOOTH"
);
},
{
closed = 1;
nodes = (
"1562 129 OFFCURVE",
"1465 -26 OFFCURVE",
"1255 -26 CURVE SMOOTH",
"1031 -26 OFFCURVE",
"950 153 OFFCURVE",
"950 368 CURVE SMOOTH",
"950 625 OFFCURVE",
"1070 764 OFFCURVE",
"1255 764 CURVE SMOOTH",
"1379 764 OFFCURVE",
"1562 685 OFFCURVE",
"1562 373 CURVE SMOOTH"
);
},
{
closed = 1;
nodes = (
"1305 1442 LINE",
"1028 949 OFFCURVE",
"760 449 OFFCURVE",
"480 -40 CURVE",
"330 -40 LINE",
"1156 1442 LINE"
);
},
{
closed = 1;
nodes = (
"1830 233 OFFCURVE",
"1856 112 OFFCURVE",
"1978 112 CURVE SMOOTH",
"2106 112 OFFCURVE",
"2132 247 OFFCURVE",
"2132 375 CURVE SMOOTH",
"2132 500 OFFCURVE",
"2104 638 OFFCURVE",
"1980 638 CURVE SMOOTH",
"1849 638 OFFCURVE",
"1830 486 OFFCURVE",
"1830 362 CURVE SMOOTH"
);
},
{
closed = 1;
nodes = (
"2286 133 OFFCURVE",
"2189 -22 OFFCURVE",
"1979 -22 CURVE SMOOTH",
"1755 -22 OFFCURVE",
"1674 157 OFFCURVE",
"1674 372 CURVE SMOOTH",
"1674 629 OFFCURVE",
"1794 768 OFFCURVE",
"1979 768 CURVE SMOOTH",
"2103 768 OFFCURVE",
"2286 689 OFFCURVE",
"2286 377 CURVE SMOOTH"
);
}
);
width = 2361;
}
);
unicode = 2030;
},
{
glyphname = lozenge;
layers = (
{
layerId = "01C703B5-1257-45FB-9F79-4B1C4C3BA1BB";
paths = (
{
closed = 1;
nodes = (
"590 -89 LINE",
"450 -89 LINE",
"63 680 LINE",
"454 1449 LINE",
"595 1449 LINE",
"983 678 LINE"
);
},
{
closed = 1;
nodes = (
"523 1285 LINE",
"226 678 LINE",
"524 65 LINE",
"820 676 LINE"
);
}
);
width = 1045;
}
);
unicode = 25CA;
},
{
glyphname = uni030F;
layers = (
{
layerId = "01C703B5-1257-45FB-9F79-4B1C4C3BA1BB";
paths = (
{
closed = 1;
nodes = (
"729 1158 LINE",
"593 1158 LINE",
"345 1451 LINE",
"562 1451 LINE"
);
},
{
closed = 1;
nodes = (
"421 1158 LINE",
"284 1158 LINE",
"36 1451 LINE",
"252 1451 LINE"
);
}
);
width = 786;
}
);
unicode = 030F;
},
{
glyphname = uni0311;
layers = (
{
layerId = "01C703B5-1257-45FB-9F79-4B1C4C3BA1BB";
paths = (
{
closed = 1;
nodes = (
"1 1153 LINE",
"1 1242 OFFCURVE",
"13 1472 OFFCURVE",
"268 1472 CURVE SMOOTH",
"453 1472 OFFCURVE",
"539 1362 OFFCURVE",
"542 1153 CURVE",
"443 1153 LINE",
"438 1204 OFFCURVE",
"417 1335 OFFCURVE",
"268 1335 CURVE SMOOTH",
"157 1335 OFFCURVE",
"108 1266 OFFCURVE",
"101 1153 CURVE"
);
}
);
width = 546;
}
);
unicode = 0311;
},
{
glyphname = uni0326;
layers = (
{
layerId = "01C703B5-1257-45FB-9F79-4B1C4C3BA1BB";
paths = (
{
closed = 1;
nodes = (
"38 -599 LINE",
"150 -107 LINE",
"372 -107 LINE",
"178 -599 LINE"
);
}
);
width = 521;
}
);
unicode = 0326;
},
{
glyphname = dieresis;
layers = (
{
layerId = "01C703B5-1257-45FB-9F79-4B1C4C3BA1BB";
paths = (
{
closed = 1;
nodes = (
"327 1377 LINE",
"327 1205 LINE",
"105 1205 LINE",
"105 1377 LINE"
);
},
{
closed = 1;
nodes = (
"705 1377 LINE",
"705 1205 LINE",
"483 1205 LINE",
"483 1377 LINE"
);
}
);
width = 816;
}
);
unicode = 00A8;
},
{
glyphname = dotaccent;
layers = (
{
layerId = "01C703B5-1257-45FB-9F79-4B1C4C3BA1BB";
paths = (
{
closed = 1;
nodes = (
"177 1410 LINE",
"367 1410 LINE",
"367 1197 LINE",
"177 1197 LINE"
);
}
);
width = 546;
}
);
unicode = 02D9;
},
{
glyphname = grave;
layers = (
{
layerId = "01C703B5-1257-45FB-9F79-4B1C4C3BA1BB";
paths = (
{
closed = 1;
nodes = (
"435 1164 LINE",
"162 1473 LINE",
"392 1473 LINE",
"564 1164 LINE"
);
}
);
width = 816;
}
);
unicode = 0060;
},
{
glyphname = acute;
layers = (
{
layerId = "01C703B5-1257-45FB-9F79-4B1C4C3BA1BB";
paths = (
{
closed = 1;
nodes = (
"249 1165 LINE",
"417 1474 LINE",
"636 1474 LINE",
"380 1165 LINE"
);
}
);
width = 816;
}
);
unicode = 00B4;
},
{
glyphname = hungarumlaut;
layers = (
{
layerId = "01C703B5-1257-45FB-9F79-4B1C4C3BA1BB";
paths = (
{
closed = 1;
nodes = (
"235 1451 LINE",
"452 1451 LINE",
"204 1158 LINE",
"68 1158 LINE"
);
},
{
closed = 1;
nodes = (
"545 1451 LINE",
"761 1451 LINE",
"513 1158 LINE",
"376 1158 LINE"
);
}
);
width = 786;
}
);
unicode = 02DD;
},
{
glyphname = circumflex;
layers = (
{
layerId = "01C703B5-1257-45FB-9F79-4B1C4C3BA1BB";
paths = (
{
closed = 1;
nodes = (
"563 1187 LINE",
"400 1413 LINE",
"234 1187 LINE",
"53 1187 LINE",
"313 1545 LINE",
"495 1545 LINE",
"751 1187 LINE"
);
}
);
width = 816;
}
);
unicode = 02C6;
},
{
glyphname = caron;
layers = (
{
layerId = "01C703B5-1257-45FB-9F79-4B1C4C3BA1BB";
paths = (
{
closed = 1;
nodes = (
"369 1139 LINE",
"185 1139 LINE",
"-38 1449 LINE",
"139 1449 LINE",
"275 1269 LINE",
"406 1449 LINE",
"593 1449 LINE"
);
}
);
width = 546;
}
);
unicode = 02C7;
},
{
glyphname = breve;
layers = (
{
layerId = "01C703B5-1257-45FB-9F79-4B1C4C3BA1BB";
paths = (
{
closed = 1;
nodes = (
"101 1472 LINE",
"108 1359 OFFCURVE",
"157 1290 OFFCURVE",
"268 1290 CURVE SMOOTH",
"417 1290 OFFCURVE",
"438 1421 OFFCURVE",
"443 1472 CURVE",
"542 1472 LINE",
"539 1263 OFFCURVE",
"453 1153 OFFCURVE",
"268 1153 CURVE SMOOTH",
"13 1153 OFFCURVE",
"1 1382 OFFCURVE",
"1 1472 CURVE"
);
}
);
width = 546;
}
);
unicode = 02D8;
},
{
glyphname = ring;
layers = (
{
layerId = "01C703B5-1257-45FB-9F79-4B1C4C3BA1BB";
paths = (
{
closed = 1;
nodes = (
"404 1505 LINE",
"328 1505 OFFCURVE",
"259 1448 OFFCURVE",
"259 1363 CURVE SMOOTH",
"259 1286 OFFCURVE",
"317 1226 OFFCURVE",
"404 1226 CURVE SMOOTH",
"488 1226 OFFCURVE",
"547 1286 OFFCURVE",
"547 1363 CURVE SMOOTH",
"547 1448 OFFCURVE",
"478 1505 OFFCURVE",
"402 1505 CURVE"
);
},
{
closed = 1;
nodes = (
"542 1598 OFFCURVE",
"640 1501 OFFCURVE",
"640 1363 CURVE SMOOTH",
"640 1228 OFFCURVE",
"542 1132 OFFCURVE",
"403 1132 CURVE SMOOTH",
"264 1132 OFFCURVE",
"166 1228 OFFCURVE",
"166 1363 CURVE SMOOTH",
"166 1501 OFFCURVE",
"264 1598 OFFCURVE",
"403 1598 CURVE SMOOTH"
);
}
);
width = 816;
}
);
unicode = 02DA;
},
{
glyphname = tilde;
layers = (
{
layerId = "01C703B5-1257-45FB-9F79-4B1C4C3BA1BB";
paths = (
{
closed = 1;
nodes = (
"464 1193 OFFCURVE",
"341 1269 OFFCURVE",
"288 1269 CURVE SMOOTH",
"245 1269 OFFCURVE",
"225 1246 OFFCURVE",
"204 1183 CURVE",
"108 1183 LINE",
"108 1319 OFFCURVE",
"194 1414 OFFCURVE",
"294 1414 CURVE SMOOTH",
"377 1414 OFFCURVE",
"468 1341 OFFCURVE",
"541 1341 CURVE SMOOTH",
"588 1341 OFFCURVE",
"611 1372 OFFCURVE",
"622 1428 CURVE",
"722 1428 LINE",
"714 1264 OFFCURVE",
"630 1193 OFFCURVE",
"536 1193 CURVE SMOOTH"
);
}
);
width = 816;
}
);
unicode = 02DC;
},
{
glyphname = overscore;
layers = (
{
layerId = "01C703B5-1257-45FB-9F79-4B1C4C3BA1BB";
paths = (
{
closed = 1;
nodes = (
"-3 1359 LINE",
"540 1359 LINE",
"540 1242 LINE",
"-3 1242 LINE"
);
}
);
width = 546;
}
);
unicode = 00AF;
},
{
glyphname = cedilla;
layers = (
{
layerId = "01C703B5-1257-45FB-9F79-4B1C4C3BA1BB";
paths = (
{
closed = 1;
nodes = (
"434 -316 OFFCURVE",
"392 -439 OFFCURVE",
"175 -439 CURVE SMOOTH",
"115 -439 OFFCURVE",
"71 -427 OFFCURVE",
"34 -412 CURVE",
"60 -313 LINE",
"87 -324 OFFCURVE",
"126 -330 OFFCURVE",
"166 -330 CURVE SMOOTH",
"234 -330 OFFCURVE",
"282 -304 OFFCURVE",
"282 -256 CURVE SMOOTH",
"282 -203 OFFCURVE",
"220 -189 OFFCURVE",
"175 -189 CURVE SMOOTH",
"164 -189 OFFCURVE",
"157 -189 OFFCURVE",
"149 -190 CURVE",
"96 -163 LINE",
"208 18 LINE",
"319 18 LINE",
"248 -97 LINE",
"377 -116 OFFCURVE",
"434 -160 OFFCURVE",
"434 -248 CURVE SMOOTH"
);
}
);
width = 481;
}
);
unicode = 00B8;
},
{
glyphname = ogonek;
layers = (
{
layerId = "01C703B5-1257-45FB-9F79-4B1C4C3BA1BB";
paths = (
{
closed = 1;
nodes = (
"423 15 LINE",
"332 -46 OFFCURVE",
"248 -107 OFFCURVE",
"248 -176 CURVE SMOOTH",
"248 -266 OFFCURVE",
"351 -266 OFFCURVE",
"367 -266 CURVE SMOOTH",
"404 -266 OFFCURVE",
"427 -255 OFFCURVE",
"459 -236 CURVE",
"459 -332 LINE",
"408 -359 OFFCURVE",
"355 -384 OFFCURVE",
"272 -384 CURVE SMOOTH",
"131 -384 OFFCURVE",
"84 -297 OFFCURVE",
"84 -233 CURVE SMOOTH",
"84 -124 OFFCURVE",
"193 -41 OFFCURVE",
"324 15 CURVE"
);
}
);
width = 546;
}
);
unicode = 02DB;
},
